<svg width="36" height="36" viewBox="0 0 36 36" fill="none" xmlns="http://www.w3.org/2000/svg">
<path d="M31.5 0H4.5C2.01797 0 0 2.01797 0 4.5V24.75C0 27.232 2.01797 29.25 4.5 29.25H11.25V35.1562C11.25 35.6555 11.6578 36 12.0938 36C12.2625 36 12.4383 35.9508 12.593 35.8312L21.375 29.25H31.5C33.982 29.25 36 27.232 36 24.75V4.5C36 2.01797 33.982 0 31.5 0ZM32.625 24.75C32.625 25.3687 32.1188 25.875 31.5 25.875H20.25L19.35 26.55L14.625 30.0938V25.875H4.5C3.88125 25.875 3.375 25.3687 3.375 24.75V4.5C3.375 3.88125 3.88125 3.375 4.5 3.375H31.5C32.1188 3.375 32.625 3.88125 32.625 4.5V24.75Z" fill="url(#paint0_linear_130_195)"/>
<defs>
<linearGradient id="paint0_linear_130_195" x1="-21.4839" y1="18" x2="55.1613" y2="18" gradientUnits="userSpaceOnUse">
<stop stop-color="#00FFFF"/>
<stop offset="0.973958" stop-color="#8F00FF"/>
</linearGradient>
</defs>
</svg>
