<svg width="120" height="36" viewBox="0 0 120 36" fill="none" xmlns="http://www.w3.org/2000/svg">
<path d="M71.936 9.192C72.16 9.192 72.328 9.248 72.44 9.36C72.568 9.456 72.632 9.592 72.632 9.768C72.632 9.832 72.616 9.928 72.584 10.056L67.712 26.448C67.632 26.64 67.528 26.784 67.4 26.88C67.288 26.96 67.12 27 66.896 27H63.944C63.72 27 63.544 26.96 63.416 26.88C63.288 26.784 63.192 26.64 63.128 26.448L60.392 17.016C60.344 16.84 60.296 16.752 60.248 16.752C60.184 16.752 60.12 16.856 60.056 17.064L57.296 26.448C57.2 26.816 56.936 27 56.504 27H53.432C53.016 27 52.752 26.816 52.64 26.448L47.744 10.056C47.728 9.992 47.72 9.904 47.72 9.792C47.72 9.6 47.776 9.456 47.888 9.36C48 9.248 48.168 9.192 48.392 9.192H51.896C52.104 9.192 52.256 9.232 52.352 9.312C52.464 9.376 52.544 9.488 52.592 9.648L55.4 19.512C55.448 19.704 55.504 19.8 55.568 19.8C55.616 19.8 55.656 19.736 55.688 19.608L58.472 9.648C58.504 9.488 58.576 9.376 58.688 9.312C58.8 9.232 58.968 9.192 59.192 9.192H62.168C62.376 9.192 62.528 9.232 62.624 9.312C62.736 9.376 62.816 9.488 62.864 9.648L65.768 19.704C65.8 19.816 65.84 19.88 65.888 19.896C65.952 19.912 66 19.864 66.032 19.752L68.768 9.648C68.816 9.344 69.048 9.192 69.464 9.192H71.936ZM79.9541 25.896C78.8981 26.792 77.6901 27.24 76.3301 27.24C75.1461 27.24 74.2021 26.912 73.4981 26.256C72.7941 25.6 72.4421 24.76 72.4421 23.736C72.4421 22.824 72.7301 22.024 73.3061 21.336C73.8821 20.632 74.7061 20.088 75.7781 19.704C76.8661 19.32 78.1461 19.12 79.6181 19.104L80.0981 19.08C80.3541 19.08 80.4821 18.968 80.4821 18.744V18.288C80.4821 17.76 80.3301 17.352 80.0261 17.064C79.7381 16.776 79.3141 16.632 78.7541 16.632C78.3061 16.632 77.8901 16.736 77.5061 16.944C77.1381 17.136 76.8341 17.456 76.5941 17.904C76.5461 18 76.4981 18.072 76.4501 18.12C76.4021 18.152 76.3301 18.168 76.2341 18.168C76.1381 18.168 76.0581 18.16 75.9941 18.144L73.2101 17.568C73.0501 17.536 72.9701 17.44 72.9701 17.28C72.9701 17.184 73.0021 17.048 73.0661 16.872C73.8021 14.984 75.7621 14.04 78.9461 14.04C80.9461 14.04 82.3781 14.392 83.2421 15.096C84.1061 15.784 84.5381 16.76 84.5381 18.024V26.4C84.5381 26.64 84.5061 26.8 84.4421 26.88C84.3781 26.96 84.2421 27 84.0341 27H81.1301C80.9541 27 80.8261 26.936 80.7461 26.808C80.6661 26.68 80.6021 26.496 80.5541 26.256L80.5301 25.896C80.5141 25.752 80.4581 25.68 80.3621 25.68C80.2661 25.68 80.1301 25.752 79.9541 25.896ZM80.4821 21.48C80.4821 21.336 80.4501 21.232 80.3861 21.168C80.3381 21.104 80.2501 21.072 80.1221 21.072L79.7381 21.096C79.3061 21.112 78.8421 21.2 78.3461 21.36C77.8661 21.504 77.4501 21.736 77.0981 22.056C76.7621 22.36 76.5941 22.728 76.5941 23.16C76.5941 23.576 76.7381 23.904 77.0261 24.144C77.3301 24.384 77.7301 24.504 78.2261 24.504C78.8181 24.504 79.3461 24.32 79.8101 23.952C80.2581 23.568 80.4821 23.216 80.4821 22.896V21.48ZM91.0027 26.352C91.0027 26.592 90.9467 26.76 90.8347 26.856C90.7227 26.952 90.5387 27 90.2827 27H87.2827C87.0587 27 86.8987 26.96 86.8027 26.88C86.7227 26.784 86.6827 26.64 86.6827 26.448L86.7787 9.696C86.7787 9.36 86.9227 9.192 87.2107 9.192H90.5947C90.7227 9.192 90.8187 9.232 90.8827 9.312C90.9627 9.392 91.0027 9.504 91.0027 9.648V26.352ZM97.6121 26.352C97.6121 26.592 97.5561 26.76 97.4441 26.856C97.3321 26.952 97.1481 27 96.8921 27H93.8921C93.6681 27 93.5081 26.96 93.4121 26.88C93.3321 26.784 93.2921 26.64 93.2921 26.448L93.3881 9.696C93.3881 9.36 93.5321 9.192 93.8201 9.192H97.2041C97.3321 9.192 97.4281 9.232 97.4921 9.312C97.5721 9.392 97.6121 9.504 97.6121 9.648V26.352ZM103.249 26.28C102.665 26.84 101.981 27.12 101.197 27.12C100.581 27.12 100.093 26.964 99.7334 26.652C99.3814 26.332 99.2054 25.908 99.2054 25.38C99.2054 24.732 99.4854 24.216 100.045 23.832C100.613 23.448 101.417 23.232 102.457 23.184L103.237 23.124C103.365 23.108 103.429 23.048 103.429 22.944V22.644C103.429 22.252 103.309 21.944 103.069 21.72C102.829 21.488 102.501 21.372 102.085 21.372C101.429 21.372 100.905 21.668 100.513 22.26C100.489 22.308 100.461 22.34 100.429 22.356C100.405 22.364 100.365 22.36 100.309 22.344L99.4934 22.104C99.4454 22.088 99.4214 22.056 99.4214 22.008C99.4214 21.976 99.4334 21.932 99.4574 21.876C99.6814 21.444 100.021 21.112 100.477 20.88C100.941 20.64 101.497 20.52 102.145 20.52C102.985 20.52 103.613 20.7 104.029 21.06C104.445 21.42 104.653 21.92 104.653 22.56V26.796C104.653 26.876 104.637 26.932 104.605 26.964C104.581 26.988 104.537 27 104.473 27H103.669C103.557 27 103.493 26.92 103.477 26.76L103.453 26.304C103.437 26.24 103.413 26.208 103.381 26.208C103.357 26.208 103.313 26.232 103.249 26.28ZM103.429 24.012C103.429 23.884 103.373 23.824 103.261 23.832L102.613 23.88C101.949 23.92 101.421 24.056 101.029 24.288C100.645 24.512 100.453 24.824 100.453 25.224C100.453 25.536 100.565 25.784 100.789 25.968C101.013 26.144 101.313 26.232 101.689 26.232C102.121 26.232 102.529 26.084 102.913 25.788C103.257 25.508 103.429 25.228 103.429 24.948V24.012ZM107.303 20.64C107.439 20.64 107.507 20.704 107.507 20.832V21.3C107.507 21.364 107.523 21.396 107.555 21.396C107.571 21.396 107.607 21.376 107.663 21.336C107.903 21.096 108.155 20.9 108.419 20.748C108.691 20.596 109.051 20.52 109.499 20.52C109.995 20.52 110.435 20.64 110.819 20.88C111.211 21.12 111.519 21.48 111.743 21.96C111.967 22.44 112.079 23.032 112.079 23.736C112.079 24.456 111.967 25.072 111.743 25.584C111.519 26.088 111.203 26.472 110.795 26.736C110.387 26.992 109.915 27.12 109.379 27.12C108.731 27.12 108.175 26.92 107.711 26.52C107.647 26.464 107.599 26.436 107.567 26.436C107.527 26.436 107.507 26.488 107.507 26.592V28.812C107.507 28.924 107.459 28.98 107.363 28.98H106.391C106.287 28.98 106.235 28.924 106.235 28.812V20.856C106.235 20.776 106.251 20.72 106.283 20.688C106.323 20.656 106.383 20.64 106.463 20.64H107.303ZM107.507 25.524C107.739 25.764 107.971 25.948 108.203 26.076C108.443 26.196 108.703 26.256 108.983 26.256C109.535 26.256 109.971 26.044 110.291 25.62C110.619 25.188 110.783 24.56 110.783 23.736C110.783 22.936 110.623 22.344 110.303 21.96C109.983 21.576 109.563 21.384 109.043 21.384C108.755 21.384 108.491 21.448 108.251 21.576C108.019 21.696 107.835 21.856 107.699 22.056C107.571 22.248 107.507 22.44 107.507 22.632V25.524ZM114.51 20.64C114.646 20.64 114.714 20.704 114.714 20.832V21.3C114.714 21.364 114.73 21.396 114.762 21.396C114.778 21.396 114.814 21.376 114.87 21.336C115.11 21.096 115.362 20.9 115.626 20.748C115.898 20.596 116.258 20.52 116.706 20.52C117.202 20.52 117.642 20.64 118.026 20.88C118.418 21.12 118.726 21.48 118.95 21.96C119.174 22.44 119.286 23.032 119.286 23.736C119.286 24.456 119.174 25.072 118.95 25.584C118.726 26.088 118.41 26.472 118.002 26.736C117.594 26.992 117.122 27.12 116.586 27.12C115.938 27.12 115.382 26.92 114.918 26.52C114.854 26.464 114.806 26.436 114.774 26.436C114.734 26.436 114.714 26.488 114.714 26.592V28.812C114.714 28.924 114.666 28.98 114.57 28.98H113.598C113.494 28.98 113.442 28.924 113.442 28.812V20.856C113.442 20.776 113.458 20.72 113.49 20.688C113.53 20.656 113.59 20.64 113.67 20.64H114.51ZM114.714 25.524C114.946 25.764 115.178 25.948 115.41 26.076C115.65 26.196 115.91 26.256 116.19 26.256C116.742 26.256 117.178 26.044 117.498 25.62C117.826 25.188 117.99 24.56 117.99 23.736C117.99 22.936 117.83 22.344 117.51 21.96C117.19 21.576 116.77 21.384 116.25 21.384C115.962 21.384 115.698 21.448 115.458 21.576C115.226 21.696 115.042 21.856 114.906 22.056C114.778 22.248 114.714 22.44 114.714 22.632V25.524Z" fill="white"/>
<path d="M31.5 0H4.5C2.01797 0 0 2.01797 0 4.5V24.75C0 27.232 2.01797 29.25 4.5 29.25H11.25V35.1562C11.25 35.6555 11.6578 36 12.0938 36C12.2625 36 12.4383 35.9508 12.593 35.8312L21.375 29.25H31.5C33.982 29.25 36 27.232 36 24.75V4.5C36 2.01797 33.982 0 31.5 0ZM32.625 24.75C32.625 25.3687 32.1188 25.875 31.5 25.875H20.25L19.35 26.55L14.625 30.0938V25.875H4.5C3.88125 25.875 3.375 25.3687 3.375 24.75V4.5C3.375 3.88125 3.88125 3.375 4.5 3.375H31.5C32.1188 3.375 32.625 3.88125 32.625 4.5V24.75Z" fill="url(#paint0_linear_22_120)"/>
<defs>
<linearGradient id="paint0_linear_22_120" x1="-21.4839" y1="18" x2="55.1613" y2="18" gradientUnits="userSpaceOnUse">
<stop stop-color="#00FFFF"/>
<stop offset="0.973958" stop-color="#8F00FF"/>
</linearGradient>
</defs>
</svg>
