<svg width="451" height="313" viewBox="0 0 451 313" fill="none" xmlns="http://www.w3.org/2000/svg">
<g clip-path="url(#clip0_26_144)">
<path d="M85.561 67.1936C99.7867 67.1936 111.319 55.6646 111.319 41.4428C111.319 27.221 99.7867 15.6919 85.561 15.6919C71.3354 15.6919 59.8032 27.221 59.8032 41.4428C59.8032 55.6646 71.3354 67.1936 85.561 67.1936Z" fill="#FFB74A"/>
<path d="M210.882 138.057C210.882 198.818 174.751 220.033 130.182 220.033C85.6119 220.033 49.481 198.818 49.481 138.057C49.481 77.297 130.182 0 130.182 0C130.182 0 210.882 77.297 210.882 138.057Z" fill="#B4B3C0"/>
<path d="M127.242 210.739L128.069 159.888L162.465 96.9777L128.199 151.911L128.57 129.046L152.276 83.5313L128.668 122.995L129.336 81.872L154.721 45.6365L129.442 75.4053L129.859 0L127.235 99.8232L127.451 95.7051L101.642 56.2109L127.037 103.61L124.632 149.538L124.561 148.319L94.8071 106.757L124.47 152.625L124.17 158.369L124.116 158.455L124.14 158.927L118.039 275.449H126.191L127.169 215.263L156.759 169.507L127.242 210.739Z" fill="#3F3D56"/>
<path d="M451 162.943C451 212.679 421.425 230.044 384.943 230.044C348.46 230.044 318.885 212.679 318.885 162.943C318.885 113.208 384.943 49.9366 384.943 49.9366C384.943 49.9366 451 113.208 451 162.943Z" fill="#B4B3C0"/>
<path d="M382.536 222.436L383.212 180.812L411.368 129.318L383.319 174.283L383.623 155.567L403.027 118.311L383.703 150.614L384.25 116.953L405.029 87.2922L384.336 111.66L384.678 49.9366L382.53 131.646L382.707 128.276L361.581 95.9477L382.368 134.747L380.399 172.34L380.341 171.343L355.986 137.322L380.267 174.868L380.021 179.569L379.977 179.64L379.997 180.026L375.003 275.405H381.675L382.476 226.14L406.697 188.686L382.536 222.436Z" fill="#3F3D56"/>
<path d="M223.204 285.075C346.477 285.075 446.409 280.025 446.409 273.796C446.409 267.566 346.477 262.516 223.204 262.516C99.932 262.516 0 267.566 0 273.796C0 280.025 99.932 285.075 223.204 285.075Z" fill="#3F3D56"/>
<path d="M359.178 294.364C380.292 294.364 397.408 293.499 397.408 292.432C397.408 291.365 380.292 290.5 359.178 290.5C338.065 290.5 320.949 291.365 320.949 292.432C320.949 293.499 338.065 294.364 359.178 294.364Z" fill="#3F3D56"/>
<path d="M220.841 313C241.955 313 259.071 312.135 259.071 311.068C259.071 310.001 241.955 309.136 220.841 309.136C199.727 309.136 182.611 310.001 182.611 311.068C182.611 312.135 199.727 313 220.841 313Z" fill="#3F3D56"/>
<path d="M115.888 299.856C164.125 299.856 203.229 297.88 203.229 295.442C203.229 293.005 164.125 291.029 115.888 291.029C67.6507 291.029 28.5469 293.005 28.5469 295.442C28.5469 297.88 67.6507 299.856 115.888 299.856Z" fill="#3F3D56"/>
<path d="M39.0726 259.629C56.6324 259.629 70.8674 245.398 70.8674 227.843C70.8674 210.288 56.6324 196.056 39.0726 196.056C21.5128 196.056 7.27783 210.288 7.27783 227.843C7.27783 245.398 21.5128 259.629 39.0726 259.629Z" fill="#2F2E41"/>
<path d="M33.9495 252.73L24.291 252.616L24.0871 269.917L33.7456 270.03L33.9495 252.73Z" fill="#2F2E41"/>
<path d="M53.2664 252.958L43.6079 252.844L43.404 270.144L53.0625 270.258L53.2664 252.958Z" fill="#2F2E41"/>
<path d="M40.1824 270.307C40.202 268.641 36.6144 267.247 32.1692 267.195C27.724 267.143 24.1045 268.451 24.0849 270.118C24.0652 271.784 27.6529 273.178 32.0981 273.23C36.5433 273.282 40.1628 271.974 40.1824 270.307Z" fill="#2F2E41"/>
<path d="M59.5042 270.133C59.5238 268.466 55.9362 267.073 51.491 267.02C47.0458 266.968 43.4263 268.276 43.4067 269.943C43.387 271.609 46.9746 273.003 51.4198 273.055C55.8651 273.108 59.4845 271.799 59.5042 270.133Z" fill="#2F2E41"/>
<path d="M39.9725 230.669C45.974 230.669 50.8391 225.805 50.8391 219.806C50.8391 213.806 45.974 208.942 39.9725 208.942C33.9711 208.942 29.106 213.806 29.106 219.806C29.106 225.805 33.9711 230.669 39.9725 230.669Z" fill="white"/>
<path d="M39.9728 223.427C41.9733 223.427 43.595 221.806 43.595 219.806C43.595 217.806 41.9733 216.184 39.9728 216.184C37.9723 216.184 36.3506 217.806 36.3506 219.806C36.3506 221.806 37.9723 223.427 39.9728 223.427Z" fill="#3F3D56"/>
<path d="M8.58143 197.921C6.14979 186.397 14.4927 174.88 27.2158 172.197C39.9389 169.514 52.2243 176.68 54.6559 188.204C57.0875 199.728 48.6276 203.868 35.9045 206.551C23.1814 209.235 11.0131 209.445 8.58143 197.921Z" fill="#4A7BFF"/>
<path d="M87.5736 245.575C87.5736 267.736 74.3969 275.473 58.1413 275.473C57.7647 275.473 57.3888 275.469 57.0134 275.461C56.2602 275.444 55.5142 275.409 54.7772 275.358C40.1068 274.32 28.709 266.185 28.709 245.575C28.709 224.247 55.9715 197.334 58.0194 195.343L58.0229 195.339C58.1019 195.262 58.1413 195.224 58.1413 195.224C58.1413 195.224 87.5736 223.415 87.5736 245.575Z" fill="#4A7BFF"/>
<path d="M57.0687 272.083L67.8335 257.045L57.0418 273.734L57.0132 275.461C56.26 275.444 55.514 275.409 54.777 275.358L55.9372 253.187L55.9282 253.015L55.948 252.983L56.0574 250.889L45.2388 234.159L56.0914 249.319L56.1165 249.763L56.9934 233.012L47.7314 215.724L57.1064 230.072L58.0191 195.343L58.0227 195.224V195.339L57.8703 222.725L67.0911 211.868L57.8327 225.084L57.5888 240.083L66.1981 225.689L57.5529 242.289L57.4166 250.627L69.9155 230.593L57.37 253.537L57.0687 272.083Z" fill="#3F3D56"/>
<path d="M286.751 259.285C304.311 259.285 318.546 245.054 318.546 227.499C318.546 209.944 304.311 195.713 286.751 195.713C269.191 195.713 254.956 209.944 254.956 227.499C254.956 245.054 269.191 259.285 286.751 259.285Z" fill="#2F2E41"/>
<path d="M289.464 252.763L280.231 255.599L285.315 272.137L294.548 269.301L289.464 252.763Z" fill="#2F2E41"/>
<path d="M307.93 247.091L298.697 249.928L303.781 266.466L313.014 263.629L307.93 247.091Z" fill="#2F2E41"/>
<path d="M293.955 272.85C298.205 271.545 301.253 269.195 300.763 267.602C300.273 266.009 296.431 265.776 292.182 267.081C287.933 268.387 284.885 270.737 285.375 272.33C285.864 273.923 289.706 274.156 293.955 272.85Z" fill="#2F2E41"/>
<path d="M312.303 266.792C316.552 265.487 319.6 263.137 319.11 261.544C318.621 259.951 314.779 259.718 310.53 261.023C306.28 262.329 303.232 264.679 303.722 266.272C304.212 267.865 308.054 268.098 312.303 266.792Z" fill="#2F2E41"/>
<path d="M285.156 230.434C291.157 230.434 296.022 225.57 296.022 219.57C296.022 213.571 291.157 208.707 285.156 208.707C279.154 208.707 274.289 213.571 274.289 219.57C274.289 225.57 279.154 230.434 285.156 230.434Z" fill="white"/>
<path d="M285.156 223.192C287.156 223.192 288.778 221.57 288.778 219.57C288.778 217.57 287.156 215.949 285.156 215.949C283.155 215.949 281.534 217.57 281.534 219.57C281.534 221.57 283.155 223.192 285.156 223.192Z" fill="#3F3D56"/>
<path d="M248.584 208.301C242.752 198.068 247.184 184.555 258.482 178.12C269.78 171.685 283.667 174.764 289.498 184.998C295.33 195.231 288.536 201.753 277.238 208.188C265.94 214.623 254.415 218.534 248.584 208.301Z" fill="#4A7BFF"/>
<path d="M230.046 241.518C230.046 261.86 217.951 268.962 203.029 268.962C202.683 268.962 202.338 268.958 201.993 268.951C201.302 268.936 200.617 268.903 199.941 268.857C186.474 267.904 176.011 260.436 176.011 241.518C176.011 221.939 201.037 197.234 202.917 195.406L202.92 195.403C202.993 195.332 203.029 195.298 203.029 195.298C203.029 195.298 230.046 221.176 230.046 241.518Z" fill="#4A7BFF"/>
<path d="M202.044 265.85L211.926 252.047L202.02 267.366L201.993 268.951C201.302 268.936 200.617 268.903 199.941 268.857L201.006 248.505L200.997 248.347L201.016 248.317L201.116 246.395L191.185 231.038L201.147 244.954L201.17 245.362L201.975 229.985L193.473 214.116L202.079 227.286L202.917 195.406L202.92 195.298V195.403L202.78 220.542L211.244 210.576L202.746 222.708L202.522 236.475L210.425 223.262L202.489 238.501L202.364 246.155L213.837 227.765L202.321 248.826L202.044 265.85Z" fill="#3F3D56"/>
<path d="M336.297 250.001C336.297 272.162 323.121 279.899 306.865 279.899C306.488 279.899 306.112 279.895 305.737 279.887C304.984 279.87 304.238 279.835 303.501 279.784C288.83 278.746 277.433 270.611 277.433 250.001C277.433 228.673 304.695 201.76 306.743 199.769L306.747 199.765C306.825 199.688 306.865 199.65 306.865 199.65C306.865 199.65 336.297 227.841 336.297 250.001Z" fill="#4A7BFF"/>
<path d="M305.792 276.509L316.557 261.471L305.765 278.16L305.737 279.887C304.984 279.87 304.238 279.835 303.501 279.784L304.661 257.613L304.652 257.441L304.672 257.409L304.781 255.315L293.962 238.585L304.815 253.745L304.84 254.189L305.717 237.438L296.455 220.15L305.83 234.498L306.743 199.769L306.746 199.65V199.765L306.594 227.151L315.815 216.294L306.556 229.51L306.312 244.508L314.922 230.114L306.277 246.715L306.14 255.053L318.639 235.019L306.094 257.963L305.792 276.509Z" fill="#3F3D56"/>
<path d="M288.77 246.527C289.951 244.037 284.478 238.97 276.545 235.208C268.612 231.447 261.224 230.416 260.042 232.906C258.861 235.395 264.335 240.463 272.268 244.224C280.2 247.986 287.589 249.017 288.77 246.527Z" fill="#2F2E41"/>
<path d="M44.0611 243.618C45.0865 241.06 39.3112 236.339 31.1616 233.073C23.012 229.808 15.5741 229.234 14.5486 231.792C13.5232 234.349 19.2985 239.07 27.4481 242.336C35.5977 245.601 43.0356 246.175 44.0611 243.618Z" fill="#2F2E41"/>
</g>
<defs>
<clipPath id="clip0_26_144">
<rect width="451" height="313" fill="white"/>
</clipPath>
</defs>
</svg>
