<svg width="401" height="440" viewBox="0 0 401 440" fill="none" xmlns="http://www.w3.org/2000/svg">
<g clip-path="url(#clip0_22_538)">
<path d="M278.451 89.2664C250.653 84.833 218.998 82.4673 186.031 82.4673C155.861 82.4673 126.793 84.4456 100.779 88.1759C100.785 87.7766 100.791 87.3774 100.809 86.9782C101.498 63.8039 111.231 41.8184 127.926 25.7209C144.622 9.62331 166.955 0.690756 190.154 0.832393C213.352 0.97403 235.575 10.1786 252.072 26.4788C268.569 42.779 278.033 64.8817 278.439 88.0627C278.445 88.4679 278.451 88.8671 278.451 89.2664Z" fill="#4A7BFF"/>
<g opacity="0.1">
<path opacity="0.1" d="M201.266 0.799281C188.928 -0.866261 176.377 0.0777192 164.427 3.57004C152.477 7.06236 141.394 13.0251 131.898 21.0718C122.401 29.1184 114.703 39.0695 109.301 50.28C103.899 61.4906 100.914 73.7104 100.54 86.1475C100.522 86.5468 100.516 86.946 100.51 87.3453C108.239 86.237 116.242 85.2874 124.459 84.4943C125.464 63.7746 133.695 44.0604 147.725 28.7724C161.755 13.4844 180.698 3.58763 201.266 0.799281Z" fill="white"/>
</g>
<path d="M317.315 96.3098C304.519 92.8431 291.54 90.0899 278.439 88.0627C256.965 84.7371 235.317 82.658 213.602 81.8357C204.557 81.4662 195.345 81.2755 186.031 81.2755C178.65 81.2755 171.328 81.3947 164.107 81.6331C142.926 82.2585 121.795 84.0428 100.809 86.9782C85.2738 89.116 69.8895 92.2327 54.748 96.3098C19.4438 106.064 0 119.138 0 133.118C0 147.097 19.4438 160.171 54.748 169.926C79.5761 176.79 110.188 181.468 143.542 183.613C157.31 184.507 171.543 184.96 186.031 184.96C200.568 184.96 214.848 184.501 228.658 183.607C259.013 181.647 287.097 177.589 310.601 171.69C310.726 171.654 310.845 171.624 310.971 171.594C312.557 171.201 314.119 170.79 315.663 170.379C316.218 170.224 316.766 170.075 317.315 169.926C317.346 169.913 317.378 169.903 317.41 169.896C317.935 169.753 318.454 169.604 318.972 169.461C320.01 169.163 321.035 168.871 322.043 168.567C322.091 168.555 322.132 168.543 322.174 168.531C323.051 168.269 323.91 168.007 324.762 167.745C325.46 167.524 326.151 167.31 326.837 167.089C327.338 166.928 327.833 166.768 328.322 166.607C328.68 166.487 329.031 166.374 329.377 166.255C329.848 166.1 330.319 165.939 330.784 165.778C330.981 165.713 331.178 165.647 331.369 165.576C331.816 165.427 332.251 165.272 332.686 165.117C333.157 164.95 333.628 164.777 334.093 164.61C334.481 164.473 334.869 164.33 335.25 164.187C335.572 164.062 335.888 163.943 336.21 163.824C337.087 163.496 337.945 163.156 338.792 162.823C339.215 162.65 339.639 162.483 340.056 162.31C340.467 162.143 340.885 161.971 341.29 161.798C341.958 161.518 342.614 161.238 343.258 160.958C343.568 160.815 343.884 160.678 344.188 160.547C344.421 160.439 344.647 160.338 344.88 160.231C345.047 160.159 345.214 160.082 345.375 160.004C345.977 159.73 346.573 159.45 347.157 159.17C349.399 158.097 351.492 157.001 353.436 155.881C365.629 148.903 372.063 141.162 372.063 133.118C372.063 119.138 352.619 106.064 317.315 96.3098ZM316.993 168.782C292.135 175.652 261.44 180.33 227.996 182.457C214.395 183.321 200.336 183.768 186.031 183.768C171.775 183.768 157.763 183.327 144.204 182.463C110.707 180.342 79.9636 175.664 55.07 168.782C20.3262 159.176 1.19251 146.513 1.19251 133.118C1.19445 131.934 1.34269 130.755 1.63388 129.608C4.67454 117.523 23.3791 106.213 55.07 97.4539C70.0971 93.4086 85.3634 90.3098 100.779 88.1759C121.891 85.224 143.15 83.4336 164.459 82.8129C171.566 82.5805 178.757 82.4653 186.031 82.4673C195.22 82.4673 204.307 82.652 213.238 83.0096C235.079 83.8245 256.854 85.9137 278.451 89.2664C291.439 91.2845 304.306 94.0178 316.993 97.4539C348.678 106.213 367.376 117.517 370.423 129.596C370.719 130.747 370.869 131.93 370.87 133.118C370.87 146.513 351.737 159.176 316.993 168.782Z" fill="#3F3D56"/>
<path d="M371.723 133.66C371.723 141.621 365.158 149.153 353.436 155.881C351.486 157.001 349.387 158.097 347.157 159.17C346.573 159.45 345.977 159.73 345.374 160.004C345.213 160.082 345.046 160.159 344.879 160.231C344.647 160.338 344.42 160.439 344.188 160.546C343.884 160.678 343.568 160.815 343.258 160.958C342.614 161.238 341.958 161.518 341.29 161.798C340.884 161.971 340.467 162.143 340.056 162.31C339.638 162.483 339.215 162.65 338.792 162.823C337.945 163.156 337.086 163.496 336.21 163.824C335.888 163.943 335.572 164.062 335.25 164.187C334.868 164.33 334.481 164.473 334.093 164.61C333.628 164.777 333.157 164.95 332.686 165.117C332.251 165.272 331.815 165.427 331.368 165.576C331.178 165.647 330.981 165.713 330.784 165.778C330.319 165.939 329.848 166.1 329.377 166.255C329.031 166.374 328.679 166.487 328.322 166.607C327.832 166.767 327.337 166.928 326.837 167.089C326.151 167.31 325.459 167.524 324.762 167.745C323.909 168.007 323.05 168.269 322.174 168.531C322.132 168.543 322.091 168.555 322.043 168.567C321.035 168.871 320.01 169.163 318.972 169.461C318.453 169.604 317.935 169.753 317.41 169.896C317.377 169.903 317.345 169.913 317.315 169.926C316.766 170.075 316.217 170.224 315.663 170.379C314.125 170.784 312.557 171.195 310.97 171.594C310.845 171.624 310.726 171.654 310.601 171.69C287.734 177.398 259.681 181.557 228.634 183.566C215.033 184.442 200.854 184.906 186.288 184.906C171.59 184.906 157.292 184.436 143.584 183.542C61.7538 178.209 0.852539 157.901 0.852539 133.66C0.858982 132.185 1.08395 130.719 1.52012 129.31C1.55593 129.411 1.59174 129.507 1.63367 129.608C10.1419 151.942 70.5249 169.991 148.873 174.395C160.875 175.074 173.307 175.426 186.031 175.426C198.809 175.426 211.288 175.068 223.339 174.389C301.621 169.967 361.944 151.912 370.423 129.596C370.566 129.238 370.691 128.881 370.799 128.523C371.403 130.169 371.716 131.907 371.723 133.66Z" fill="#3F3D56"/>
<path d="M54.6583 127.246C44.735 127.246 34.1885 125.112 34.1885 121.158C34.1885 117.203 44.735 115.07 54.6583 115.07C64.5816 115.07 75.1281 117.203 75.1281 121.158C75.1281 125.112 64.5816 127.246 54.6583 127.246ZM54.6583 116.262C43.2979 116.262 35.381 118.842 35.381 121.158C35.381 123.474 43.2979 126.054 54.6583 126.054C66.0187 126.054 73.9356 123.474 73.9356 121.158C73.9356 118.842 66.0187 116.262 54.6583 116.262Z" fill="#3F3D56"/>
<path d="M96.9922 155.253C87.069 155.253 76.5225 153.119 76.5225 149.165C76.5225 145.21 87.069 143.076 96.9922 143.076C106.916 143.076 117.462 145.21 117.462 149.165C117.462 153.119 106.916 155.253 96.9922 155.253ZM96.9922 144.268C85.6319 144.268 77.715 146.849 77.715 149.165C77.715 151.48 85.6319 154.061 96.9922 154.061C108.353 154.061 116.27 151.48 116.27 149.165C116.27 146.849 108.353 144.268 96.9922 144.268Z" fill="#3F3D56"/>
<path d="M317.01 127.246C307.087 127.246 296.541 125.112 296.541 121.158C296.541 117.203 307.087 115.07 317.01 115.07C326.934 115.07 337.48 117.203 337.48 121.158C337.48 125.112 326.934 127.246 317.01 127.246ZM317.01 116.262C305.65 116.262 297.733 118.842 297.733 121.158C297.733 123.474 305.65 126.054 317.01 126.054C328.371 126.054 336.288 123.474 336.288 121.158C336.288 118.842 328.371 116.262 317.01 116.262Z" fill="#3F3D56"/>
<path d="M274.676 155.253C264.753 155.253 254.206 153.119 254.206 149.165C254.206 145.21 264.753 143.076 274.676 143.076C284.599 143.076 295.146 145.21 295.146 149.165C295.146 153.119 284.599 155.253 274.676 155.253ZM274.676 144.268C263.315 144.268 255.399 146.849 255.399 149.165C255.399 151.48 263.315 154.061 274.676 154.061C286.036 154.061 293.953 151.48 293.953 149.165C293.953 146.849 286.036 144.268 274.676 144.268Z" fill="#3F3D56"/>
<path d="M185.834 168.362C175.911 168.362 165.364 166.229 165.364 162.274C165.364 158.32 175.911 156.186 185.834 156.186C195.757 156.186 206.304 158.32 206.304 162.274C206.304 166.229 195.757 168.362 185.834 168.362ZM185.834 157.378C174.474 157.378 166.557 159.958 166.557 162.274C166.557 164.59 174.474 167.17 185.834 167.17C197.194 167.17 205.111 164.59 205.111 162.274C205.111 159.958 197.194 157.378 185.834 157.378Z" fill="#3F3D56"/>
<path d="M200.925 293.604C214.759 293.604 225.975 282.395 225.975 268.569C225.975 254.743 214.759 243.535 200.925 243.535C187.09 243.535 175.875 254.743 175.875 268.569C175.875 282.395 187.09 293.604 200.925 293.604Z" fill="#2F2E41"/>
<path d="M191.399 285.017L179.208 291.119L182.615 297.919L194.807 291.817L191.399 285.017Z" fill="#2F2E41"/>
<path d="M184.222 297.229C184.945 296.133 183.161 293.683 180.237 291.756C177.313 289.829 174.356 289.156 173.633 290.251C172.91 291.347 174.695 293.798 177.619 295.724C180.543 297.651 183.499 298.325 184.222 297.229Z" fill="#2F2E41"/>
<path d="M210.45 285.017L207.042 291.818L219.234 297.919L222.642 291.119L210.45 285.017Z" fill="#2F2E41"/>
<path d="M224.231 295.724C227.155 293.798 228.939 291.347 228.216 290.251C227.493 289.156 224.536 289.829 221.612 291.756C218.688 293.683 216.904 296.133 217.627 297.229C218.35 298.325 221.306 297.651 224.231 295.724Z" fill="#2F2E41"/>
<path d="M199.171 271.002C203.899 271.002 207.732 267.171 207.732 262.446C207.732 257.72 203.899 253.889 199.171 253.889C194.442 253.889 190.609 257.72 190.609 262.446C190.609 267.171 194.442 271.002 199.171 271.002Z" fill="white"/>
<path d="M201.253 260.805C202.363 259.696 202.357 257.891 201.239 256.774C200.121 255.657 198.316 255.651 197.206 256.76C196.096 257.869 196.102 259.674 197.22 260.791C198.338 261.908 200.144 261.914 201.253 260.805Z" fill="#3F3D56"/>
<path d="M220.686 241.334C221.062 232.066 213.07 224.216 202.833 223.8C192.597 223.385 183.994 230.561 183.617 239.829C183.24 249.098 190.356 251.203 200.592 251.619C210.828 252.034 220.309 250.602 220.686 241.334Z" fill="#4A7BFF"/>
<path d="M235.125 281.678C236.773 280.265 234.456 274.866 229.95 269.621C225.444 264.376 220.456 261.269 218.808 262.683C217.16 264.097 219.477 269.495 223.983 274.74C228.489 279.986 233.477 283.092 235.125 281.678Z" fill="#2F2E41"/>
<path d="M177.936 274.74C182.442 269.495 184.759 264.097 183.111 262.683C181.464 261.269 176.475 264.376 171.969 269.621C167.464 274.866 165.147 280.265 166.794 281.678C168.442 283.092 173.431 279.986 177.936 274.74Z" fill="#2F2E41"/>
<path d="M207.804 278.435C208.075 279.923 207.744 281.458 206.882 282.702C206.021 283.946 204.701 284.798 203.211 285.069C201.722 285.339 200.186 285.008 198.941 284.147C197.696 283.286 196.845 281.967 196.574 280.478L196.572 280.467C196.01 277.367 198.408 276.27 201.51 275.709C204.612 275.148 207.243 275.335 207.804 278.435Z" fill="white"/>
<path d="M158.604 295.199C158.287 295.199 157.984 295.074 157.76 294.85C157.537 294.627 157.411 294.324 157.411 294.008V223.693C157.411 223.377 157.537 223.074 157.76 222.85C157.984 222.627 158.287 222.501 158.604 222.501C158.92 222.501 159.223 222.627 159.447 222.85C159.67 223.074 159.796 223.377 159.796 223.693V294.008C159.796 294.324 159.67 294.627 159.447 294.85C159.223 295.074 158.92 295.199 158.604 295.199Z" fill="#CCCCCC"/>
<path d="M140.716 358.363C140.4 358.363 140.096 358.238 139.873 358.014C139.649 357.791 139.523 357.488 139.523 357.172V305.925C139.523 305.609 139.649 305.306 139.873 305.083C140.096 304.859 140.4 304.733 140.716 304.733C141.032 304.733 141.336 304.859 141.559 305.083C141.783 305.306 141.908 305.609 141.908 305.925V357.172C141.908 357.488 141.783 357.791 141.559 358.014C141.336 358.238 141.032 358.363 140.716 358.363Z" fill="#CCCCCC"/>
<path d="M186.628 316.055C186.311 316.055 186.008 315.93 185.784 315.706C185.561 315.483 185.435 315.18 185.435 314.864V244.549C185.435 244.233 185.561 243.93 185.784 243.706C186.008 243.483 186.311 243.357 186.628 243.357C186.944 243.357 187.247 243.483 187.471 243.706C187.694 243.93 187.82 244.233 187.82 244.549V314.864C187.82 315.18 187.694 315.483 187.471 315.706C187.247 315.93 186.944 316.055 186.628 316.055Z" fill="#CCCCCC"/>
<path d="M169.336 366.706C169.02 366.706 168.716 366.58 168.493 366.357C168.269 366.133 168.144 365.83 168.144 365.514V336.911C168.144 336.595 168.269 336.292 168.493 336.069C168.716 335.845 169.02 335.72 169.336 335.72C169.652 335.72 169.956 335.845 170.179 336.069C170.403 336.292 170.529 336.595 170.529 336.911V365.514C170.529 365.83 170.403 366.133 170.179 366.357C169.956 366.58 169.652 366.706 169.336 366.706Z" fill="#CCCCCC"/>
<path d="M193.783 220.117C193.467 220.117 193.163 219.992 192.94 219.768C192.716 219.545 192.59 219.242 192.59 218.926V190.323C192.59 190.007 192.716 189.704 192.94 189.48C193.163 189.257 193.467 189.131 193.783 189.131C194.099 189.131 194.402 189.257 194.626 189.48C194.85 189.704 194.975 190.007 194.975 190.323V218.926C194.975 219.242 194.85 219.545 194.626 219.768C194.402 219.992 194.099 220.117 193.783 220.117Z" fill="#CCCCCC"/>
<path d="M134.157 232.631C133.841 232.631 133.538 232.505 133.314 232.282C133.091 232.058 132.965 231.755 132.965 231.439V202.837C132.965 202.521 133.09 202.217 133.314 201.994C133.538 201.77 133.841 201.645 134.157 201.645C134.474 201.645 134.777 201.77 135.001 201.994C135.224 202.217 135.35 202.521 135.35 202.837V231.439C135.35 231.755 135.224 232.058 135.001 232.282C134.777 232.505 134.474 232.631 134.157 232.631Z" fill="#CCCCCC"/>
<path d="M237.905 235.61C237.589 235.61 237.286 235.485 237.062 235.261C236.839 235.038 236.713 234.735 236.713 234.419V205.816C236.713 205.5 236.839 205.197 237.062 204.973C237.286 204.75 237.589 204.624 237.905 204.624C238.222 204.624 238.525 204.75 238.749 204.973C238.972 205.197 239.098 205.5 239.098 205.816V234.419C239.098 234.735 238.972 235.038 238.749 235.261C238.525 235.485 238.222 235.61 237.905 235.61Z" fill="#CCCCCC"/>
<path d="M235.521 324.994C235.204 324.994 234.901 324.868 234.677 324.645C234.454 324.421 234.328 324.118 234.328 323.802V289.24C234.328 288.924 234.454 288.621 234.677 288.398C234.901 288.174 235.204 288.049 235.521 288.049C235.837 288.049 236.14 288.174 236.364 288.398C236.587 288.621 236.713 288.924 236.713 289.24V323.802C236.713 324.118 236.587 324.421 236.364 324.645C236.14 324.868 235.837 324.994 235.521 324.994Z" fill="#CCCCCC"/>
<path d="M211.671 355.384C211.354 355.384 211.051 355.258 210.827 355.035C210.604 354.811 210.478 354.508 210.478 354.192V302.946C210.478 302.63 210.604 302.327 210.827 302.103C211.051 301.88 211.354 301.754 211.671 301.754C211.987 301.754 212.29 301.88 212.514 302.103C212.737 302.327 212.863 302.63 212.863 302.946V354.192C212.863 354.508 212.737 354.811 212.514 355.035C212.29 355.258 211.987 355.384 211.671 355.384Z" fill="#CCCCCC"/>
<path d="M216.441 267.788C216.124 267.788 215.821 267.663 215.597 267.439C215.374 267.216 215.248 266.913 215.248 266.597V196.282C215.248 195.966 215.374 195.663 215.597 195.439C215.821 195.216 216.124 195.09 216.441 195.09C216.757 195.09 217.06 195.216 217.284 195.439C217.507 195.663 217.633 195.966 217.633 196.282V266.597C217.633 266.913 217.507 267.216 217.284 267.439C217.06 267.663 216.757 267.788 216.441 267.788Z" fill="#CCCCCC"/>
<path d="M362.638 417.414C364.345 415.986 362.038 410.423 357.486 404.99C352.934 399.556 347.86 396.309 346.153 397.737C344.446 399.165 346.753 404.728 351.305 410.162C355.857 415.595 360.931 418.842 362.638 417.414Z" fill="#2F2E41"/>
<path d="M351.444 411.235C355.929 397.789 348.658 383.255 335.203 378.773C321.749 374.291 307.206 381.558 302.722 395.004C298.237 408.45 305.508 422.984 318.962 427.466C332.417 431.948 346.959 424.681 351.444 411.235Z" fill="#2F2E41"/>
<path d="M337.952 423.26H330.15V437.229H337.952V423.26Z" fill="#2F2E41"/>
<path d="M322.349 423.26H314.548V437.229H322.349V423.26Z" fill="#2F2E41"/>
<path d="M331.451 439.828C335.041 439.828 337.952 438.737 337.952 437.391C337.952 436.046 335.041 434.955 331.451 434.955C327.86 434.955 324.95 436.046 324.95 437.391C324.95 438.737 327.86 439.828 331.451 439.828Z" fill="#2F2E41"/>
<path d="M315.848 439.503C319.439 439.503 322.349 438.412 322.349 437.067C322.349 435.721 319.439 434.63 315.848 434.63C312.258 434.63 309.347 435.721 309.347 437.067C309.347 438.412 312.258 439.503 315.848 439.503Z" fill="#2F2E41"/>
<path d="M319.02 370.86C321.313 361.632 331.434 356.201 341.627 358.73C351.819 361.259 358.223 370.791 355.93 380.02C353.637 389.248 346.03 389.278 335.837 386.748C325.645 384.219 316.727 380.089 319.02 370.86Z" fill="#CCCCCC"/>
<path d="M309.761 396.71C310.715 394.7 306.294 390.609 299.887 387.572C293.48 384.535 287.513 383.703 286.559 385.713C285.605 387.723 290.025 391.814 296.432 394.851C302.839 397.888 308.807 398.72 309.761 396.71Z" fill="#2F2E41"/>
<path d="M323.244 406.261C327.972 406.261 331.805 402.43 331.805 397.704C331.805 392.979 327.972 389.148 323.244 389.148C318.515 389.148 314.682 392.979 314.682 397.704C314.682 402.43 318.515 406.261 323.244 406.261Z" fill="white"/>
<path d="M319.725 397.49C321.301 397.49 322.579 396.213 322.579 394.637C322.579 393.062 321.301 391.785 319.725 391.785C318.149 391.785 316.871 393.062 316.871 394.637C316.871 396.213 318.149 397.49 319.725 397.49Z" fill="#3F3D56"/>
<path d="M323.17 419.144C325.146 419.144 326.747 417.543 326.747 415.569C326.747 413.594 325.146 411.993 323.17 411.993C321.194 411.993 319.592 413.594 319.592 415.569C319.592 417.543 321.194 419.144 323.17 419.144Z" fill="white"/>
<path d="M400.404 440H259.688C259.529 440 259.378 439.937 259.266 439.825C259.154 439.714 259.091 439.562 259.091 439.404C259.091 439.246 259.154 439.094 259.266 438.983C259.378 438.871 259.529 438.808 259.688 438.808H400.404C400.562 438.808 400.713 438.871 400.825 438.983C400.937 439.094 401 439.246 401 439.404C401 439.562 400.937 439.714 400.825 439.825C400.713 439.937 400.562 440 400.404 440Z" fill="#3F3D56"/>
</g>
<defs>
<clipPath id="clip0_22_538">
<rect width="401" height="440" fill="white"/>
</clipPath>
</defs>
</svg>
