<svg width="600" height="414" viewBox="0 0 600 414" fill="none" xmlns="http://www.w3.org/2000/svg">
<g clip-path="url(#clip0_32_742)">
<path d="M339.378 56.3637C300.918 56.4151 263.9 45.5186 228.492 33.4137C193.083 21.3088 157.948 7.75372 120.204 2.00979C95.9294 -1.68237 68.3262 -1.34298 49.3512 12.0629C31.0863 24.9598 25.7972 46.3054 23.2453 66.0261C21.3262 80.8615 20.4412 96.4324 27.6289 110.003C32.6196 119.424 41.1603 127.188 47.18 136.167C68.1924 167.401 55.5562 207.3 35.1355 239.259C25.5606 254.254 14.3443 268.627 7.10526 284.48C-0.133818 300.334 -3.10251 318.312 4.28063 333.959C11.5969 349.469 28.1228 360.725 45.8578 368.413C81.8731 384.056 123.805 387.408 164.611 388.699C254.937 391.563 345.438 385.722 435.698 379.88C469.1 377.72 502.651 375.545 535.363 369.287C553.525 365.816 572.227 360.663 585.105 349.371C601.451 335.034 604.795 311.627 592.9 294.801C572.953 266.58 520.355 261.258 506.051 230.723C498.164 213.913 504.966 194.635 514.983 178.431C536.469 143.664 573.451 112.523 574.074 73.6366C574.501 46.9328 555.269 20.882 526.544 9.27583C496.435 -2.88052 455.383 0.245987 434.288 22.9029C412.597 46.2437 373.335 56.3277 339.378 56.3637Z" fill="#3F3D56"/>
<path d="M510.661 331.862C510.661 331.862 504.338 327.692 498.071 330.659C498.071 330.659 500.001 334.372 507.934 334.022L510.661 331.862Z" fill="#4A7BFF"/>
<path d="M511.464 332.083C511.464 332.083 513.388 339.406 508.562 344.389C508.562 344.389 505.66 341.37 508.562 333.976L511.464 332.083Z" fill="#4A7BFF"/>
<path d="M519.325 325.054C519.325 325.054 518.857 318.827 504.785 320.894C504.785 320.894 504.718 324.91 509.658 326.813C514.597 328.715 516.861 327.111 519.325 325.054Z" fill="#4A7BFF"/>
<path d="M520.211 325.013C520.211 325.013 526.158 326.921 520.854 340.111C520.854 340.111 516.928 339.236 516.223 333.986C515.518 328.736 517.607 326.926 520.211 325.013Z" fill="#4A7BFF"/>
<path d="M528.155 316.178C528.155 316.178 528.963 305.93 514.582 306.979C514.582 306.979 513.553 316.235 525.619 318.641L528.155 316.178Z" fill="#4A7BFF"/>
<path d="M537.657 304.608C537.657 304.608 535.687 292.992 521.312 296.453C521.312 296.453 521.26 306.495 535.311 307.375L537.657 304.608Z" fill="#4A7BFF"/>
<path d="M544.603 292.647C544.603 292.647 541.3 281.334 527.059 284.718C527.059 284.718 530.449 294.894 543.656 294.735L544.603 292.647Z" fill="#4A7BFF"/>
<path d="M551.199 280.964C551.199 280.964 547.973 269.224 534.221 272.736C534.221 272.736 538.81 283.89 550.289 282.949L551.199 280.964Z" fill="#4A7BFF"/>
<path d="M555.449 269.867C555.449 269.867 552.969 255.51 540.147 258.688C540.147 258.688 543.872 271.749 554.507 271.96L555.449 269.867Z" fill="#4A7BFF"/>
<path d="M559.436 256.461C559.436 256.461 556.457 241.991 543.486 246.176C543.486 246.176 548.57 259.855 558.515 258.441L559.436 256.461Z" fill="#4A7BFF"/>
<path d="M561.885 243.986C561.885 243.986 557.157 229.51 547.129 229.901C547.129 229.901 551.96 245.189 561.046 246.871L561.885 243.986Z" fill="#4A7BFF"/>
<path d="M563.47 231.809C563.47 231.809 558.325 214.387 550.165 215.729C550.165 215.729 553.725 229.048 563.182 234.524L563.47 231.809Z" fill="#4A7BFF"/>
<path d="M564.366 217.282C564.366 217.282 559.54 202.765 551.503 202.184C551.503 202.184 554.786 216.469 564.206 221.056L564.366 217.282Z" fill="#4A7BFF"/>
<path d="M565.338 203.727C565.338 203.727 559.323 189.195 554.019 188.866C554.019 188.866 556.632 203.177 564.823 206.113L565.338 203.727Z" fill="#4A7BFF"/>
<path d="M566.001 191.118C566.001 191.118 562.302 175.336 556.987 174.025C556.987 174.025 557.713 186.937 565.466 192.301L566.001 191.118Z" fill="#4A7BFF"/>
<path d="M568.009 174.601C568.009 174.601 564.119 162.018 559.812 160.1C559.812 160.1 560.661 174.935 567.016 177.676L568.009 174.601Z" fill="#4A7BFF"/>
<path d="M569.67 163.802L570.452 141.618C570.452 141.618 562.4 158.341 569.089 167.695L569.67 163.802Z" fill="#4A7BFF"/>
<path d="M575.886 141.737C575.886 141.737 581.684 125.539 583.089 124.633C583.089 124.633 571.718 135.144 572.829 148.663L575.886 141.737Z" fill="#4A7BFF"/>
<path d="M528.546 316.101C528.546 316.101 538.743 314.769 538.44 329.173C538.44 329.173 529.225 330.674 526.215 318.76L528.546 316.101Z" fill="#4A7BFF"/>
<path d="M538.141 304.217C538.141 304.217 549.923 304.181 548.946 318.924C548.946 318.924 539.052 320.693 535.79 307.004L538.141 304.217Z" fill="#4A7BFF"/>
<path d="M544.716 293.599C544.716 293.599 555.413 288.585 562.256 301.528C562.256 301.528 552.377 305.704 543.77 295.691L544.716 293.599Z" fill="#4A7BFF"/>
<path d="M551.436 281.072C551.436 281.072 562.39 275.739 568.821 288.379C568.821 288.379 557.409 292.308 550.53 283.072L551.436 281.072Z" fill="#4A7BFF"/>
<path d="M555.31 270.181C555.31 270.181 565.852 260.117 574.264 270.294C574.264 270.294 563.496 278.578 554.826 272.423L555.31 270.181Z" fill="#4A7BFF"/>
<path d="M558.84 256.117C558.84 256.117 569.444 245.832 577.789 256.59C577.789 256.59 565.888 265.038 558.459 258.276L558.84 256.117Z" fill="#4A7BFF"/>
<path d="M560.82 243.574C560.82 243.574 568.991 230.719 578.612 233.588C578.612 233.588 570.133 247.2 560.913 246.593L560.82 243.574Z" fill="#4A7BFF"/>
<path d="M563.229 231.727C563.229 231.727 571.461 215.539 579.25 218.357C579.25 218.357 573.313 230.801 563.018 234.457L563.229 231.727Z" fill="#4A7BFF"/>
<path d="M563.8 216.439C563.8 216.439 572.263 203.696 580.192 205.254C580.192 205.254 573.272 218.177 562.977 220.126L563.8 216.439Z" fill="#4A7BFF"/>
<path d="M564.458 203.444C564.458 203.444 571.018 189.143 576.348 189.046C576.348 189.046 573.199 203.244 564.9 205.871L564.458 203.444Z" fill="#4A7BFF"/>
<path d="M565.744 190.81C565.744 190.81 573.035 176.329 578.514 176.298C578.514 176.298 574.784 188.681 565.986 192.08L565.744 190.81Z" fill="#4A7BFF"/>
<path d="M566.84 175.506C566.84 175.506 572.294 163.525 576.811 162.167C576.811 162.167 574.084 176.771 567.442 178.684L566.84 175.506Z" fill="#4A7BFF"/>
<path d="M570.318 163.365L582.507 144.807C582.507 144.807 579.384 163.113 568.538 166.918L570.318 163.365Z" fill="#4A7BFF"/>
<path d="M578.685 143.233C578.685 143.233 592.849 133.463 593.363 131.884C593.363 131.884 586.16 145.568 572.783 147.985L578.685 143.233Z" fill="#4A7BFF"/>
<path d="M579.533 138.836C579.533 138.836 595.796 123.209 599.948 123.224C599.948 123.224 586.535 123.836 579.142 138.003L579.533 138.836Z" fill="#4A7BFF"/>
<path d="M567 177.825L567.592 177.902C570.648 153.996 575.103 139.85 580.135 138.117L579.94 137.551C574.604 139.402 570.118 153.333 567 177.825Z" fill="#444053"/>
<path d="M562.503 234.997L563.398 235.069C563.589 232.837 563.733 230.554 563.83 228.276C564.684 208.489 566.007 190.316 567.746 176.694L567.231 176.051C565.487 189.704 563.789 208.422 562.935 228.24C562.837 230.503 562.693 232.776 562.503 234.997Z" fill="#444053"/>
<path d="M493.971 343.268C494.125 343.201 509.885 336.166 526.241 319.392C535.823 309.568 543.786 298.286 549.831 285.967C557.394 270.577 562.004 251.663 563.547 233.29L562.616 233.727C559.143 274.968 540.359 303.148 525.423 318.498C509.226 335.123 493.642 342.085 493.487 342.152L493.971 343.268Z" fill="#444053"/>
<path d="M534.777 43.8277H40.3993C39.2312 43.8277 38.111 44.2914 37.2851 45.1169C36.4591 45.9424 35.9951 47.062 35.9951 48.2295V61.0543H539.181V48.2295C539.181 47.062 538.717 45.9424 537.891 45.1169C537.065 44.2914 535.945 43.8277 534.777 43.8277Z" fill="#242836"/>
<path d="M35.9951 61.0543V349.66C35.9951 352.014 36.9307 354.271 38.5961 355.936C40.2615 357.6 42.5203 358.535 44.8755 358.535H530.3C532.656 358.535 534.914 357.6 536.58 355.936C538.245 354.271 539.181 352.014 539.181 349.66V61.0543H35.9951Z" fill="black"/>
<path opacity="0.8" d="M43.9643 54.3694C45.1009 54.3694 46.0223 53.4484 46.0223 52.3124C46.0223 51.1764 45.1009 50.2555 43.9643 50.2555C42.8277 50.2555 41.9062 51.1764 41.9062 52.3124C41.9062 53.4484 42.8277 54.3694 43.9643 54.3694Z" fill="#FA5959"/>
<path opacity="0.8" d="M49.6234 54.3694C50.7601 54.3694 51.6815 53.4484 51.6815 52.3124C51.6815 51.1764 50.7601 50.2555 49.6234 50.2555C48.4868 50.2555 47.5654 51.1764 47.5654 52.3124C47.5654 53.4484 48.4868 54.3694 49.6234 54.3694Z" fill="#FED253"/>
<path opacity="0.8" d="M55.2836 54.3694C56.4202 54.3694 57.3416 53.4484 57.3416 52.3124C57.3416 51.1764 56.4202 50.2555 55.2836 50.2555C54.147 50.2555 53.2256 51.1764 53.2256 52.3124C53.2256 53.4484 54.147 54.3694 55.2836 54.3694Z" fill="#8CCF4D"/>
<path opacity="0.05" d="M487.169 109.176H82.7686V286.903H487.169V109.176Z" fill="black"/>
<path d="M484.082 110.523H85.8555V284.332H484.082V110.523Z" fill="#3F3D56"/>
<path d="M194.416 155.256C186.58 155.256 178.921 157.578 172.406 161.929C165.891 166.28 160.813 172.464 157.815 179.699C154.816 186.934 154.031 194.895 155.56 202.576C157.089 210.257 160.862 217.312 166.402 222.85C171.943 228.387 179.002 232.158 186.687 233.686C194.372 235.214 202.337 234.43 209.576 231.433C216.815 228.436 223.003 223.361 227.356 216.849C231.709 210.338 234.033 202.683 234.033 194.851C234.033 189.652 233.008 184.503 231.017 179.699C229.026 174.895 226.108 170.53 222.429 166.853C218.75 163.176 214.383 160.26 209.576 158.27C204.77 156.28 199.618 155.256 194.416 155.256ZM201.521 195.803V214.551H187.516V195.803C185.578 194.336 184.15 192.299 183.433 189.978C182.716 187.656 182.746 185.169 183.52 182.866C184.294 180.563 185.772 178.561 187.745 177.142C189.719 175.724 192.088 174.961 194.519 174.961C196.949 174.961 199.319 175.724 201.292 177.142C203.265 178.561 204.743 180.563 205.517 182.866C206.291 185.169 206.321 187.656 205.604 189.978C204.887 192.299 203.459 194.336 201.521 195.803Z" fill="#4A7BFF"/>
<path opacity="0.05" d="M194.416 155.256C186.58 155.256 178.921 157.578 172.406 161.929C165.891 166.28 160.813 172.464 157.815 179.699C154.816 186.934 154.031 194.895 155.56 202.576C157.089 210.257 160.862 217.312 166.402 222.85C171.943 228.387 179.002 232.158 186.687 233.686C194.372 235.214 202.337 234.43 209.576 231.433C216.815 228.436 223.003 223.361 227.356 216.849C231.709 210.338 234.033 202.683 234.033 194.851C234.033 189.652 233.008 184.503 231.017 179.699C229.026 174.895 226.108 170.53 222.429 166.853C218.75 163.176 214.383 160.26 209.576 158.27C204.77 156.28 199.618 155.256 194.416 155.256ZM201.521 195.803V214.551H187.516V195.803C185.578 194.336 184.15 192.299 183.433 189.978C182.716 187.656 182.746 185.169 183.52 182.866C184.294 180.563 185.772 178.561 187.745 177.142C189.719 175.724 192.088 174.961 194.519 174.961C196.949 174.961 199.319 175.724 201.292 177.142C203.265 178.561 204.743 180.563 205.517 182.866C206.291 185.169 206.321 187.656 205.604 189.978C204.887 192.299 203.459 194.336 201.521 195.803Z" fill="black"/>
<path d="M194.415 143.943C184.341 143.943 174.493 146.928 166.117 152.522C157.741 158.116 151.212 166.067 147.357 175.369C143.502 184.672 142.493 194.908 144.458 204.783C146.424 214.658 151.275 223.729 158.398 230.849C165.522 237.969 174.598 242.817 184.478 244.782C194.359 246.746 204.6 245.738 213.908 241.885C223.215 238.032 231.17 231.507 236.767 223.135C242.364 214.763 245.351 204.92 245.351 194.851C245.351 181.35 239.985 168.401 230.433 158.854C220.88 149.306 207.925 143.943 194.415 143.943ZM203.548 196.075V220.177H185.54V196.075C183.048 194.19 181.21 191.569 180.288 188.584C179.365 185.599 179.404 182.399 180.399 179.438C181.394 176.476 183.295 173.901 185.833 172.077C188.371 170.253 191.418 169.271 194.544 169.271C197.67 169.271 200.717 170.253 203.255 172.077C205.793 173.901 207.694 176.476 208.689 179.438C209.684 182.399 209.723 185.599 208.8 188.584C207.878 191.569 206.041 194.19 203.548 196.075Z" fill="#4A7BFF"/>
<path d="M431.088 188.172H266.446V205.655H431.088V188.172Z" fill="white"/>
<path d="M431.088 220.054H395.587V237.537H431.088V220.054Z" fill="#4A7BFF"/>
<path d="M282.654 196.651H279.675L282.324 194.008C282.372 193.959 282.398 193.894 282.398 193.825C282.398 193.757 282.372 193.692 282.324 193.643C282.3 193.619 282.272 193.6 282.241 193.587C282.209 193.574 282.176 193.567 282.142 193.567C282.108 193.567 282.074 193.574 282.043 193.587C282.011 193.6 281.983 193.619 281.959 193.643L279.309 196.291V193.309C279.309 193.24 279.282 193.175 279.234 193.127C279.186 193.079 279.12 193.052 279.052 193.052C278.984 193.053 278.92 193.08 278.872 193.128C278.824 193.176 278.796 193.241 278.795 193.309V196.291L276.15 193.627C276.126 193.603 276.098 193.584 276.067 193.571C276.035 193.558 276.002 193.551 275.968 193.551C275.934 193.551 275.9 193.558 275.869 193.571C275.837 193.584 275.809 193.603 275.785 193.627C275.738 193.676 275.711 193.742 275.711 193.81C275.711 193.878 275.738 193.944 275.785 193.993L278.435 196.636H275.451C275.383 196.637 275.318 196.665 275.27 196.712C275.222 196.76 275.195 196.825 275.193 196.893C275.193 196.961 275.22 197.026 275.269 197.075C275.317 197.123 275.382 197.15 275.451 197.15H278.435L275.785 199.798C275.738 199.847 275.711 199.913 275.711 199.981C275.711 200.049 275.738 200.114 275.785 200.163C275.835 200.21 275.9 200.235 275.968 200.235C276.035 200.235 276.101 200.21 276.15 200.163L278.795 197.515V200.492C278.795 200.561 278.822 200.626 278.87 200.674C278.918 200.722 278.984 200.75 279.052 200.75C279.12 200.75 279.186 200.722 279.234 200.674C279.282 200.626 279.309 200.561 279.309 200.492V197.515L281.959 200.163C282.009 200.21 282.074 200.235 282.142 200.235C282.209 200.235 282.275 200.21 282.324 200.163C282.372 200.114 282.398 200.049 282.398 199.981C282.398 199.913 282.372 199.847 282.324 199.798L279.675 197.15H282.654C282.722 197.15 282.787 197.123 282.836 197.075C282.884 197.026 282.911 196.961 282.911 196.893C282.907 196.827 282.878 196.766 282.83 196.721C282.782 196.676 282.719 196.651 282.654 196.651Z" fill="#FFB74A"/>
<path d="M293.458 196.651H290.479L293.129 194.008C293.177 193.959 293.203 193.894 293.203 193.825C293.203 193.757 293.177 193.692 293.129 193.643C293.105 193.619 293.077 193.6 293.045 193.587C293.014 193.574 292.98 193.567 292.946 193.567C292.912 193.567 292.879 193.574 292.847 193.587C292.816 193.6 292.788 193.619 292.764 193.643L290.114 196.291V193.309C290.114 193.24 290.087 193.175 290.039 193.127C289.99 193.079 289.925 193.052 289.857 193.052C289.789 193.053 289.724 193.08 289.676 193.128C289.628 193.176 289.601 193.241 289.6 193.309V196.291L286.955 193.627C286.931 193.603 286.903 193.584 286.871 193.571C286.84 193.558 286.806 193.551 286.772 193.551C286.738 193.551 286.705 193.558 286.673 193.571C286.642 193.584 286.614 193.603 286.59 193.627C286.542 193.676 286.516 193.742 286.516 193.81C286.516 193.878 286.542 193.944 286.59 193.993L289.239 196.636H286.255C286.187 196.637 286.123 196.665 286.075 196.712C286.027 196.76 285.999 196.825 285.998 196.893C285.998 196.961 286.025 197.026 286.073 197.075C286.122 197.123 286.187 197.15 286.255 197.15H289.239L286.59 199.798C286.542 199.847 286.516 199.913 286.516 199.981C286.516 200.049 286.542 200.114 286.59 200.163C286.639 200.21 286.705 200.235 286.772 200.235C286.84 200.235 286.905 200.21 286.955 200.163L289.6 197.515V200.492C289.6 200.561 289.627 200.626 289.675 200.674C289.723 200.722 289.789 200.75 289.857 200.75C289.925 200.75 289.99 200.722 290.039 200.674C290.087 200.626 290.114 200.561 290.114 200.492V197.515L292.764 200.163C292.813 200.21 292.879 200.235 292.946 200.235C293.014 200.235 293.08 200.21 293.129 200.163C293.177 200.114 293.203 200.049 293.203 199.981C293.203 199.913 293.177 199.847 293.129 199.798L290.479 197.15H293.458C293.527 197.15 293.592 197.123 293.64 197.075C293.688 197.026 293.716 196.961 293.716 196.893C293.712 196.827 293.683 196.766 293.635 196.721C293.587 196.676 293.524 196.651 293.458 196.651Z" fill="#FFB74A"/>
<path d="M304.263 196.651H301.284L303.934 194.008C303.981 193.959 304.008 193.894 304.008 193.825C304.008 193.757 303.981 193.692 303.934 193.643C303.91 193.619 303.881 193.6 303.85 193.587C303.819 193.574 303.785 193.567 303.751 193.567C303.717 193.567 303.684 193.574 303.652 193.587C303.621 193.6 303.592 193.619 303.568 193.643L300.919 196.291V193.309C300.919 193.24 300.892 193.175 300.843 193.127C300.795 193.079 300.73 193.052 300.662 193.052C300.594 193.053 300.529 193.08 300.481 193.128C300.433 193.176 300.406 193.241 300.404 193.309V196.291L297.76 193.627C297.736 193.603 297.707 193.584 297.676 193.571C297.645 193.558 297.611 193.551 297.577 193.551C297.543 193.551 297.509 193.558 297.478 193.571C297.447 193.584 297.418 193.603 297.394 193.627C297.347 193.676 297.32 193.742 297.32 193.81C297.32 193.878 297.347 193.944 297.394 193.993L300.044 196.636H297.06C296.992 196.637 296.927 196.665 296.88 196.712C296.832 196.76 296.804 196.825 296.803 196.893C296.803 196.961 296.83 197.026 296.878 197.075C296.926 197.123 296.992 197.15 297.06 197.15H300.044L297.394 199.798C297.347 199.847 297.32 199.913 297.32 199.981C297.32 200.049 297.347 200.114 297.394 200.163C297.444 200.21 297.509 200.235 297.577 200.235C297.645 200.235 297.71 200.21 297.76 200.163L300.404 197.515V200.492C300.404 200.561 300.431 200.626 300.48 200.674C300.528 200.722 300.593 200.75 300.662 200.75C300.73 200.75 300.795 200.722 300.843 200.674C300.892 200.626 300.919 200.561 300.919 200.492V197.515L303.568 200.163C303.618 200.21 303.683 200.235 303.751 200.235C303.819 200.235 303.884 200.21 303.934 200.163C303.981 200.114 304.008 200.049 304.008 199.981C304.008 199.913 303.981 199.847 303.934 199.798L301.284 197.15H304.263C304.331 197.15 304.397 197.123 304.445 197.075C304.493 197.026 304.52 196.961 304.52 196.893C304.516 196.827 304.488 196.766 304.44 196.721C304.392 196.676 304.329 196.651 304.263 196.651Z" fill="#FFB74A"/>
<path d="M315.067 196.651H312.088L314.737 194.008C314.785 193.959 314.811 193.894 314.811 193.825C314.811 193.757 314.785 193.692 314.737 193.643C314.714 193.619 314.685 193.6 314.654 193.587C314.622 193.574 314.589 193.567 314.555 193.567C314.521 193.567 314.487 193.574 314.456 193.587C314.425 193.6 314.396 193.619 314.372 193.643L311.722 196.291V193.309C311.722 193.24 311.695 193.175 311.647 193.127C311.599 193.079 311.533 193.052 311.465 193.052C311.397 193.053 311.333 193.08 311.285 193.128C311.237 193.176 311.209 193.241 311.208 193.309V196.291L308.563 193.627C308.54 193.603 308.511 193.584 308.48 193.571C308.448 193.558 308.415 193.551 308.381 193.551C308.347 193.551 308.313 193.558 308.282 193.571C308.25 193.584 308.222 193.603 308.198 193.627C308.151 193.676 308.124 193.742 308.124 193.81C308.124 193.878 308.151 193.944 308.198 193.993L310.848 196.636H307.864C307.796 196.637 307.731 196.665 307.683 196.712C307.635 196.76 307.608 196.825 307.606 196.893C307.606 196.961 307.634 197.026 307.682 197.075C307.73 197.123 307.795 197.15 307.864 197.15H310.848L308.198 199.798C308.151 199.847 308.124 199.913 308.124 199.981C308.124 200.049 308.151 200.114 308.198 200.163C308.248 200.21 308.313 200.235 308.381 200.235C308.449 200.235 308.514 200.21 308.563 200.163L311.208 197.515V200.492C311.208 200.561 311.235 200.626 311.283 200.674C311.332 200.722 311.397 200.75 311.465 200.75C311.533 200.75 311.599 200.722 311.647 200.674C311.695 200.626 311.722 200.561 311.722 200.492V197.515L314.372 200.163C314.422 200.21 314.487 200.235 314.555 200.235C314.623 200.235 314.688 200.21 314.737 200.163C314.785 200.114 314.811 200.049 314.811 199.981C314.811 199.913 314.785 199.847 314.737 199.798L312.088 197.15H315.067C315.135 197.15 315.2 197.123 315.249 197.075C315.297 197.026 315.324 196.961 315.324 196.893C315.32 196.827 315.291 196.766 315.243 196.721C315.196 196.676 315.132 196.651 315.067 196.651Z" fill="#FFB74A"/>
<path d="M325.871 196.651H322.892L325.542 194.008C325.59 193.959 325.616 193.894 325.616 193.825C325.616 193.757 325.59 193.692 325.542 193.643C325.518 193.619 325.49 193.6 325.458 193.587C325.427 193.574 325.393 193.567 325.359 193.567C325.325 193.567 325.292 193.574 325.261 193.587C325.229 193.6 325.201 193.619 325.177 193.643L322.527 196.291V193.309C322.527 193.24 322.5 193.175 322.452 193.127C322.404 193.079 322.338 193.052 322.27 193.052C322.202 193.053 322.137 193.08 322.089 193.128C322.041 193.176 322.014 193.241 322.013 193.309V196.291L319.368 193.627C319.344 193.603 319.316 193.584 319.284 193.571C319.253 193.558 319.219 193.551 319.185 193.551C319.151 193.551 319.118 193.558 319.087 193.571C319.055 193.584 319.027 193.603 319.003 193.627C318.955 193.676 318.929 193.742 318.929 193.81C318.929 193.878 318.955 193.944 319.003 193.993L321.652 196.636H318.668C318.601 196.637 318.536 196.665 318.488 196.712C318.44 196.76 318.412 196.825 318.411 196.893C318.411 196.961 318.438 197.026 318.486 197.075C318.535 197.123 318.6 197.15 318.668 197.15H321.652L319.003 199.798C318.955 199.847 318.929 199.913 318.929 199.981C318.929 200.049 318.955 200.114 319.003 200.163C319.052 200.21 319.118 200.235 319.185 200.235C319.253 200.235 319.319 200.21 319.368 200.163L322.013 197.515V200.492C322.013 200.561 322.04 200.626 322.088 200.674C322.136 200.722 322.202 200.75 322.27 200.75C322.338 200.75 322.404 200.722 322.452 200.674C322.5 200.626 322.527 200.561 322.527 200.492V197.515L325.177 200.163C325.226 200.21 325.292 200.235 325.359 200.235C325.427 200.235 325.493 200.21 325.542 200.163C325.59 200.114 325.616 200.049 325.616 199.981C325.616 199.913 325.59 199.847 325.542 199.798L322.892 197.15H325.871C325.94 197.15 326.005 197.123 326.053 197.075C326.102 197.026 326.129 196.961 326.129 196.893C326.125 196.827 326.096 196.766 326.048 196.721C326 196.676 325.937 196.651 325.871 196.651Z" fill="#FFB74A"/>
<path d="M336.676 196.651H333.697L336.347 194.008C336.394 193.959 336.421 193.894 336.421 193.825C336.421 193.757 336.394 193.692 336.347 193.643C336.323 193.619 336.294 193.6 336.263 193.587C336.232 193.574 336.198 193.567 336.164 193.567C336.13 193.567 336.097 193.574 336.065 193.587C336.034 193.6 336.005 193.619 335.982 193.643L333.332 196.291V193.309C333.332 193.24 333.305 193.175 333.256 193.127C333.208 193.079 333.143 193.052 333.075 193.052C333.007 193.053 332.942 193.08 332.894 193.128C332.846 193.176 332.819 193.241 332.817 193.309V196.291L330.173 193.627C330.149 193.603 330.12 193.584 330.089 193.571C330.058 193.558 330.024 193.551 329.99 193.551C329.956 193.551 329.923 193.558 329.891 193.571C329.86 193.584 329.831 193.603 329.807 193.627C329.76 193.676 329.733 193.742 329.733 193.81C329.733 193.878 329.76 193.944 329.807 193.993L332.457 196.636H329.473C329.405 196.637 329.341 196.665 329.293 196.712C329.245 196.76 329.217 196.825 329.216 196.893C329.216 196.961 329.243 197.026 329.291 197.075C329.339 197.123 329.405 197.15 329.473 197.15H332.457L329.807 199.798C329.76 199.847 329.733 199.913 329.733 199.981C329.733 200.049 329.76 200.114 329.807 200.163C329.857 200.21 329.922 200.235 329.99 200.235C330.058 200.235 330.123 200.21 330.173 200.163L332.817 197.515V200.492C332.817 200.561 332.844 200.626 332.893 200.674C332.941 200.722 333.006 200.75 333.075 200.75C333.143 200.75 333.208 200.722 333.256 200.674C333.305 200.626 333.332 200.561 333.332 200.492V197.515L335.982 200.163C336.031 200.21 336.096 200.235 336.164 200.235C336.232 200.235 336.297 200.21 336.347 200.163C336.394 200.114 336.421 200.049 336.421 199.981C336.421 199.913 336.394 199.847 336.347 199.798L333.697 197.15H336.676C336.744 197.15 336.81 197.123 336.858 197.075C336.906 197.026 336.933 196.961 336.933 196.893C336.929 196.827 336.901 196.766 336.853 196.721C336.805 196.676 336.742 196.651 336.676 196.651Z" fill="#FFB74A"/>
<path d="M347.481 196.651H344.502L347.152 194.008C347.199 193.959 347.226 193.894 347.226 193.825C347.226 193.757 347.199 193.692 347.152 193.643C347.128 193.619 347.099 193.6 347.068 193.587C347.037 193.574 347.003 193.567 346.969 193.567C346.935 193.567 346.901 193.574 346.87 193.587C346.839 193.6 346.81 193.619 346.786 193.643L344.137 196.291V193.309C344.137 193.24 344.109 193.175 344.061 193.127C344.013 193.079 343.948 193.052 343.879 193.052C343.812 193.053 343.747 193.08 343.699 193.128C343.651 193.176 343.623 193.241 343.622 193.309V196.291L340.977 193.627C340.954 193.603 340.925 193.584 340.894 193.571C340.862 193.558 340.829 193.551 340.795 193.551C340.761 193.551 340.727 193.558 340.696 193.571C340.665 193.584 340.636 193.603 340.612 193.627C340.565 193.676 340.538 193.742 340.538 193.81C340.538 193.878 340.565 193.944 340.612 193.993L343.262 196.636H340.278C340.21 196.637 340.145 196.665 340.097 196.712C340.049 196.76 340.022 196.825 340.021 196.893C340.021 196.961 340.048 197.026 340.096 197.075C340.144 197.123 340.21 197.15 340.278 197.15H343.262L340.612 199.798C340.565 199.847 340.538 199.913 340.538 199.981C340.538 200.049 340.565 200.114 340.612 200.163C340.662 200.21 340.727 200.235 340.795 200.235C340.863 200.235 340.928 200.21 340.977 200.163L343.622 197.515V200.492C343.622 200.561 343.649 200.626 343.697 200.674C343.746 200.722 343.811 200.75 343.879 200.75C343.948 200.75 344.013 200.722 344.061 200.674C344.109 200.626 344.137 200.561 344.137 200.492V197.515L346.786 200.163C346.836 200.21 346.901 200.235 346.969 200.235C347.037 200.235 347.102 200.21 347.152 200.163C347.199 200.114 347.226 200.049 347.226 199.981C347.226 199.913 347.199 199.847 347.152 199.798L344.502 197.15H347.481C347.549 197.15 347.615 197.123 347.663 197.075C347.711 197.026 347.738 196.961 347.738 196.893C347.734 196.827 347.705 196.766 347.658 196.721C347.61 196.676 347.547 196.651 347.481 196.651Z" fill="#FFB74A"/>
<path d="M358.286 196.651H355.307L357.956 194.008C358.004 193.959 358.03 193.894 358.03 193.825C358.03 193.757 358.004 193.692 357.956 193.643C357.932 193.619 357.904 193.6 357.872 193.587C357.841 193.574 357.808 193.567 357.774 193.567C357.74 193.567 357.706 193.574 357.675 193.587C357.643 193.6 357.615 193.619 357.591 193.643L354.941 196.291V193.309C354.941 193.24 354.914 193.175 354.866 193.127C354.818 193.079 354.752 193.052 354.684 193.052C354.616 193.053 354.551 193.08 354.504 193.128C354.456 193.176 354.428 193.241 354.427 193.309V196.291L351.782 193.627C351.758 193.603 351.73 193.584 351.698 193.571C351.667 193.558 351.633 193.551 351.599 193.551C351.566 193.551 351.532 193.558 351.501 193.571C351.469 193.584 351.441 193.603 351.417 193.627C351.369 193.676 351.343 193.742 351.343 193.81C351.343 193.878 351.369 193.944 351.417 193.993L354.067 196.636H351.082C351.015 196.637 350.95 196.665 350.902 196.712C350.854 196.76 350.827 196.825 350.825 196.893C350.825 196.961 350.852 197.026 350.901 197.075C350.949 197.123 351.014 197.15 351.082 197.15H354.067L351.417 199.798C351.369 199.847 351.343 199.913 351.343 199.981C351.343 200.049 351.369 200.114 351.417 200.163C351.466 200.21 351.532 200.235 351.599 200.235C351.667 200.235 351.733 200.21 351.782 200.163L354.427 197.515V200.492C354.427 200.561 354.454 200.626 354.502 200.674C354.55 200.722 354.616 200.75 354.684 200.75C354.752 200.75 354.818 200.722 354.866 200.674C354.914 200.626 354.941 200.561 354.941 200.492V197.515L357.591 200.163C357.64 200.21 357.706 200.235 357.774 200.235C357.841 200.235 357.907 200.21 357.956 200.163C358.004 200.114 358.03 200.049 358.03 199.981C358.03 199.913 358.004 199.847 357.956 199.798L355.307 197.15H358.286C358.354 197.15 358.419 197.123 358.467 197.075C358.516 197.026 358.543 196.961 358.543 196.893C358.539 196.827 358.51 196.766 358.462 196.721C358.414 196.676 358.351 196.651 358.286 196.651Z" fill="#FFB74A"/>
<path d="M369.09 196.651H366.111L368.761 194.008C368.808 193.959 368.835 193.894 368.835 193.825C368.835 193.757 368.808 193.692 368.761 193.643C368.737 193.619 368.709 193.6 368.677 193.587C368.646 193.574 368.612 193.567 368.578 193.567C368.544 193.567 368.511 193.574 368.479 193.587C368.448 193.6 368.42 193.619 368.396 193.643L365.746 196.291V193.309C365.746 193.24 365.719 193.175 365.671 193.127C365.622 193.079 365.557 193.052 365.489 193.052C365.421 193.053 365.356 193.08 365.308 193.128C365.26 193.176 365.233 193.241 365.231 193.309V196.291L362.587 193.627C362.563 193.603 362.534 193.584 362.503 193.571C362.472 193.558 362.438 193.551 362.404 193.551C362.37 193.551 362.337 193.558 362.305 193.571C362.274 193.584 362.245 193.603 362.222 193.627C362.174 193.676 362.148 193.742 362.148 193.81C362.148 193.878 362.174 193.944 362.222 193.993L364.871 196.636H361.887C361.819 196.637 361.755 196.665 361.707 196.712C361.659 196.76 361.631 196.825 361.63 196.893C361.63 196.961 361.657 197.026 361.705 197.075C361.753 197.123 361.819 197.15 361.887 197.15H364.871L362.222 199.798C362.174 199.847 362.148 199.913 362.148 199.981C362.148 200.049 362.174 200.114 362.222 200.163C362.271 200.21 362.336 200.235 362.404 200.235C362.472 200.235 362.537 200.21 362.587 200.163L365.231 197.515V200.492C365.231 200.561 365.259 200.626 365.307 200.674C365.355 200.722 365.42 200.75 365.489 200.75C365.557 200.75 365.622 200.722 365.671 200.674C365.719 200.626 365.746 200.561 365.746 200.492V197.515L368.396 200.163C368.445 200.21 368.51 200.235 368.578 200.235C368.646 200.235 368.711 200.21 368.761 200.163C368.808 200.114 368.835 200.049 368.835 199.981C368.835 199.913 368.808 199.847 368.761 199.798L366.111 197.15H369.09C369.158 197.15 369.224 197.123 369.272 197.075C369.32 197.026 369.347 196.961 369.347 196.893C369.344 196.827 369.315 196.766 369.267 196.721C369.219 196.676 369.156 196.651 369.09 196.651Z" fill="#FFB74A"/>
<path d="M379.895 196.651H376.916L379.566 194.008C379.613 193.959 379.64 193.894 379.64 193.825C379.64 193.757 379.613 193.692 379.566 193.643C379.542 193.619 379.513 193.6 379.482 193.587C379.451 193.574 379.417 193.567 379.383 193.567C379.349 193.567 379.315 193.574 379.284 193.587C379.253 193.6 379.224 193.619 379.2 193.643L376.551 196.291V193.309C376.551 193.24 376.523 193.175 376.475 193.127C376.427 193.079 376.362 193.052 376.293 193.052C376.226 193.053 376.161 193.08 376.113 193.128C376.065 193.176 376.037 193.241 376.036 193.309V196.291L373.392 193.627C373.368 193.603 373.339 193.584 373.308 193.571C373.276 193.558 373.243 193.551 373.209 193.551C373.175 193.551 373.141 193.558 373.11 193.571C373.079 193.584 373.05 193.603 373.026 193.627C372.979 193.676 372.952 193.742 372.952 193.81C372.952 193.878 372.979 193.944 373.026 193.993L375.676 196.636H372.692C372.624 196.637 372.559 196.665 372.511 196.712C372.463 196.76 372.436 196.825 372.435 196.893C372.435 196.961 372.462 197.026 372.51 197.075C372.558 197.123 372.624 197.15 372.692 197.15H375.676L373.026 199.798C372.979 199.847 372.952 199.913 372.952 199.981C372.952 200.049 372.979 200.114 373.026 200.163C373.076 200.21 373.141 200.235 373.209 200.235C373.277 200.235 373.342 200.21 373.392 200.163L376.036 197.515V200.492C376.036 200.561 376.063 200.626 376.111 200.674C376.16 200.722 376.225 200.75 376.293 200.75C376.362 200.75 376.427 200.722 376.475 200.674C376.523 200.626 376.551 200.561 376.551 200.492V197.515L379.2 200.163C379.25 200.21 379.315 200.235 379.383 200.235C379.451 200.235 379.516 200.21 379.566 200.163C379.613 200.114 379.64 200.049 379.64 199.981C379.64 199.913 379.613 199.847 379.566 199.798L376.916 197.15H379.895C379.963 197.15 380.029 197.123 380.077 197.075C380.125 197.026 380.152 196.961 380.152 196.893C380.148 196.827 380.119 196.766 380.072 196.721C380.024 196.676 379.961 196.651 379.895 196.651Z" fill="#FFB74A"/>
<path d="M390.7 196.651H387.721L390.37 194.008C390.418 193.959 390.444 193.894 390.444 193.825C390.444 193.757 390.418 193.692 390.37 193.643C390.346 193.619 390.318 193.6 390.286 193.587C390.255 193.574 390.222 193.567 390.188 193.567C390.154 193.567 390.12 193.574 390.089 193.587C390.057 193.6 390.029 193.619 390.005 193.643L387.355 196.291V193.309C387.355 193.24 387.328 193.175 387.28 193.127C387.232 193.079 387.166 193.052 387.098 193.052C387.03 193.053 386.965 193.08 386.918 193.128C386.87 193.176 386.842 193.241 386.841 193.309V196.291L384.196 193.627C384.172 193.603 384.144 193.584 384.113 193.571C384.081 193.558 384.048 193.551 384.014 193.551C383.98 193.551 383.946 193.558 383.915 193.571C383.883 193.584 383.855 193.603 383.831 193.627C383.783 193.676 383.757 193.742 383.757 193.81C383.757 193.878 383.783 193.944 383.831 193.993L386.481 196.636H383.497C383.429 196.637 383.364 196.665 383.316 196.712C383.268 196.76 383.241 196.825 383.239 196.893C383.239 196.961 383.266 197.026 383.315 197.075C383.363 197.123 383.428 197.15 383.497 197.15H386.481L383.831 199.798C383.783 199.847 383.757 199.913 383.757 199.981C383.757 200.049 383.783 200.114 383.831 200.163C383.88 200.21 383.946 200.235 384.014 200.235C384.081 200.235 384.147 200.21 384.196 200.163L386.841 197.515V200.492C386.841 200.561 386.868 200.626 386.916 200.674C386.964 200.722 387.03 200.75 387.098 200.75C387.166 200.75 387.232 200.722 387.28 200.674C387.328 200.626 387.355 200.561 387.355 200.492V197.515L390.005 200.163C390.054 200.21 390.12 200.235 390.188 200.235C390.255 200.235 390.321 200.21 390.37 200.163C390.418 200.114 390.444 200.049 390.444 199.981C390.444 199.913 390.418 199.847 390.37 199.798L387.721 197.15H390.7C390.768 197.15 390.833 197.123 390.881 197.075C390.93 197.026 390.957 196.961 390.957 196.893C390.953 196.827 390.924 196.766 390.876 196.721C390.828 196.676 390.765 196.651 390.7 196.651Z" fill="#FFB74A"/>
<g opacity="0.1">
<path opacity="0.1" d="M440.874 251.55C439.704 257.134 438.087 262.614 436.038 267.939C436.393 267.234 436.691 266.494 436.974 265.758C439.037 260.413 440.663 254.91 441.836 249.303C443.303 242.309 443.864 234.39 439.593 228.657C438.564 227.289 437.242 225.808 437.288 224.203C436.908 224.689 436.612 225.235 436.414 225.818C435.899 227.675 437.474 229.366 438.626 230.909C442.896 236.632 442.336 244.562 440.874 251.55Z" fill="black"/>
<path opacity="0.1" d="M438.205 222.018C438.617 221.506 438.925 220.917 439.11 220.285C439.19 219.521 439.169 218.75 439.048 217.992C438.652 218.29 438.354 218.7 438.194 219.169C437.891 220.079 438.241 221.067 438.205 222.018Z" fill="black"/>
<path opacity="0.1" d="M468.869 268.34C468.528 268.862 468.061 269.29 467.51 269.584C466.791 269.838 466.013 269.877 465.272 269.697C461.83 269.183 458.069 268.124 455.023 269.785C453.372 270.679 452.091 272.304 450.254 272.716C447.213 273.395 444.62 270.479 441.615 269.63C439.485 269.039 437.242 269.528 435.097 270.145C434.67 271.053 434.095 271.884 433.394 272.603C435.76 271.924 438.276 271.24 440.648 271.898C443.653 272.731 446.246 275.647 449.292 274.984C451.123 274.577 452.41 272.952 454.056 272.052C457.143 270.391 460.863 271.435 464.305 271.97C465.047 272.145 465.823 272.106 466.543 271.857C467.094 271.561 467.561 271.131 467.901 270.607C468.834 269.378 469.554 268.002 470.031 266.535C469.688 267.163 469.299 267.767 468.869 268.34Z" fill="black"/>
</g>
<path d="M438.894 388.876C421.549 388.876 407.488 374.822 407.488 357.486C407.488 340.15 421.549 326.097 438.894 326.097C456.24 326.097 470.301 340.15 470.301 357.486C470.301 374.822 456.24 388.876 438.894 388.876Z" fill="#2F2E41"/>
<path d="M443.665 382.121H453.206V399.206H443.665V382.121Z" fill="#2F2E41"/>
<path d="M424.583 382.121H434.124V399.206H424.583V382.121Z" fill="#2F2E41"/>
<path d="M445.255 402.385C440.864 402.385 437.304 401.051 437.304 399.405C437.304 397.759 440.864 396.425 445.255 396.425C449.646 396.425 453.206 397.759 453.206 399.405C453.206 401.051 449.646 402.385 445.255 402.385Z" fill="#2F2E41"/>
<path d="M426.173 401.988C421.782 401.988 418.222 400.654 418.222 399.008C418.222 397.362 421.782 396.028 426.173 396.028C430.564 396.028 434.124 397.362 434.124 399.008C434.124 400.654 430.564 401.988 426.173 401.988Z" fill="#2F2E41"/>
<path d="M438.099 360.268C432.171 360.268 427.365 355.464 427.365 349.54C427.365 343.615 432.171 338.812 438.099 338.812C444.027 338.812 448.833 343.615 448.833 349.54C448.833 355.464 444.027 360.268 438.099 360.268Z" fill="white"/>
<path d="M438.099 353.116C436.123 353.116 434.521 351.515 434.521 349.54C434.521 347.565 436.123 345.964 438.099 345.964C440.075 345.964 441.677 347.565 441.677 349.54C441.677 351.515 440.075 353.116 438.099 353.116Z" fill="#3F3D56"/>
<path d="M469.36 328.295C471.896 316.944 463.79 305.475 451.254 302.677C438.718 299.879 426.501 306.813 423.965 318.164C421.429 329.515 429.737 333.701 442.272 336.499C454.808 339.297 466.824 339.646 469.36 328.295Z" fill="#FFB74A"/>
<path d="M449.628 298.681C432.283 298.681 418.222 284.627 418.222 267.291C418.222 249.955 432.283 235.902 449.628 235.902C466.973 235.902 481.034 249.955 481.034 267.291C481.034 284.627 466.973 298.681 449.628 298.681Z" fill="#2F2E41"/>
<path d="M454.398 291.926H463.939V309.011H454.398V291.926Z" fill="#2F2E41"/>
<path d="M435.316 291.926H444.857V309.011H435.316V291.926Z" fill="#2F2E41"/>
<path d="M455.988 312.19C451.597 312.19 448.038 310.856 448.038 309.21C448.038 307.564 451.597 306.23 455.988 306.23C460.38 306.23 463.939 307.564 463.939 309.21C463.939 310.856 460.38 312.19 455.988 312.19Z" fill="#2F2E41"/>
<path d="M436.906 311.793C432.515 311.793 428.956 310.459 428.956 308.813C428.956 307.167 432.515 305.833 436.906 305.833C441.298 305.833 444.857 307.167 444.857 308.813C444.857 310.459 441.298 311.793 436.906 311.793Z" fill="#2F2E41"/>
<path d="M448.833 270.073C442.905 270.073 438.099 265.27 438.099 259.345C438.099 253.42 442.905 248.617 448.833 248.617C454.761 248.617 459.566 253.42 459.566 259.345C459.566 265.27 454.761 270.073 448.833 270.073Z" fill="white"/>
<path d="M448.833 262.921C446.857 262.921 445.255 261.32 445.255 259.345C445.255 257.37 446.857 255.769 448.833 255.769C450.809 255.769 452.411 257.37 452.411 259.345C452.411 261.32 450.809 262.921 448.833 262.921Z" fill="#3F3D56"/>
<path d="M480.093 238.1C482.629 226.749 474.523 215.28 461.987 212.482C449.452 209.684 437.234 216.618 434.698 227.969C432.162 239.32 440.47 243.506 453.005 246.304C465.541 249.102 477.557 249.451 480.093 238.1Z" fill="#4A7BFF"/>
<path d="M415.994 245.347C412.898 237.25 412.45 229.899 414.993 228.927C417.536 227.956 422.108 233.732 425.204 241.829C428.3 249.925 428.749 257.277 426.206 258.248C423.663 259.22 419.091 253.444 415.994 245.347Z" fill="#2F2E41"/>
<path d="M470.814 259.452C469.647 256.993 475.054 251.989 482.889 248.275C490.725 244.56 498.023 243.542 499.19 246.001C500.357 248.459 494.95 253.464 487.115 257.178C479.279 260.893 471.98 261.911 470.814 259.452Z" fill="#2F2E41"/>
<path d="M465.055 278.615C465.055 281.688 457.14 287.754 448.358 287.754C439.575 287.754 431.341 279.105 431.341 276.033C431.341 272.961 439.575 276.629 448.358 276.629C457.14 276.629 465.055 275.543 465.055 278.615Z" fill="white"/>
</g>
<defs>
<clipPath id="clip0_32_742">
<rect width="600" height="414" fill="white"/>
</clipPath>
</defs>
</svg>
