<svg width="602" height="581" viewBox="0 0 602 581" fill="none" xmlns="http://www.w3.org/2000/svg">
<path fill-rule="evenodd" clip-rule="evenodd" d="M309.858 1.46671C371.65 -2.89648 441.992 0.136382 486.198 43.5725C529.323 85.9474 508.241 158.403 527.819 215.631C547.904 274.342 605.895 319.547 601.793 381.469C597.292 449.412 561.885 517.994 505.285 555.766C449.419 593.047 376.958 578.686 309.858 576.287C245.438 573.984 170.231 587.436 124.317 542.147C78.8104 497.261 109.783 418.823 88.9345 358.373C67.4288 296.017 -12.1195 250.782 1.57433 186.255C15.1155 122.447 94.8031 100.775 150.713 67.2616C201.19 37.0055 251.169 5.61083 309.858 1.46671Z" fill="url(#paint0_linear_6_264)"/>
<defs>
<linearGradient id="paint0_linear_6_264" x1="-359.258" y1="290.5" x2="922.419" y2="290.5" gradientUnits="userSpaceOnUse">
<stop stop-color="#00FFFF"/>
<stop offset="0.973958" stop-color="#8F00FF"/>
</linearGradient>
</defs>
</svg>
