<svg width="600" height="442" viewBox="0 0 600 442" fill="none" xmlns="http://www.w3.org/2000/svg">
<g clip-path="url(#clip0_32_441)">
<path d="M535.133 236.825C532.518 267.046 519.354 296.25 500.574 320.403C499.789 321.413 498.995 322.414 498.191 323.405C496.382 325.636 494.527 327.825 492.625 329.971C490.298 332.616 487.903 335.2 485.44 337.723C483.435 339.8 481.384 341.832 479.285 343.819C477.666 345.37 476.028 346.89 474.372 348.379C454.443 366.401 431.548 381.273 407.96 394.279C361.927 419.653 311.47 438.874 258.987 441.674C206.511 444.466 151.73 429.425 113.246 393.606C61.3797 345.335 46.9044 264.822 67.962 197.147C81.9676 152.124 110.554 111.394 149.458 84.7925C188.027 58.4226 236.682 46.553 282.73 54.3117C319.489 31.9545 367.612 31.5266 407.575 48.0753C428.899 56.9073 448.036 70.0397 464.824 85.9079C472.513 93.1902 479.707 100.978 486.358 109.219C487.038 110.054 487.711 110.896 488.377 111.745C491.167 115.273 493.866 118.874 496.474 122.548C500.217 127.816 503.771 133.202 507.136 138.704C508.061 140.219 508.979 141.741 509.876 143.278C510.479 144.309 511.089 145.347 511.685 146.392C511.698 146.414 511.708 146.438 511.713 146.463C521.043 162.885 528.67 180.409 532.644 198.725C533.345 201.966 533.934 205.221 534.39 208.504V208.511C534.789 211.296 535.091 214.096 535.294 216.909C535.773 223.541 535.719 230.201 535.133 236.825Z" fill="#3F3D56"/>
<path opacity="0.3" d="M398.189 282.512L294.12 195.75L395.222 285.987C395.417 286.317 395.689 286.595 396.014 286.799C396.339 287.003 396.708 287.127 397.09 287.16C397.472 287.193 397.856 287.134 398.211 286.988C398.566 286.843 398.881 286.615 399.13 286.323C399.379 286.031 399.555 285.684 399.644 285.311C399.732 284.937 399.73 284.548 399.638 284.175C399.546 283.803 399.367 283.457 399.115 283.168C398.863 282.879 398.546 282.654 398.189 282.512Z" fill="#F0F0F0"/>
<path d="M159.531 238.361C193.987 238.361 221.919 210.408 221.919 175.926C221.919 141.444 193.987 113.491 159.531 113.491C125.075 113.491 97.1436 141.444 97.1436 175.926C97.1436 210.408 125.075 238.361 159.531 238.361Z" fill="#F2F2F2"/>
<path d="M214.909 171.717C214.909 179.179 213.441 186.568 210.588 193.463C207.735 200.357 203.552 206.621 198.28 211.898C193.007 217.175 186.748 221.36 179.858 224.215C172.969 227.071 165.586 228.54 158.129 228.54C151.483 228.536 144.889 227.373 138.642 225.102C128.874 221.541 120.27 215.367 113.767 207.251C107.263 199.136 103.108 189.39 101.756 179.075C100.403 168.76 101.904 158.272 106.095 148.752C110.286 139.231 117.006 131.044 125.525 125.082C134.043 119.119 144.033 115.609 154.406 114.935C164.78 114.26 175.14 116.446 184.357 121.256C193.575 126.065 201.298 133.313 206.685 142.21C212.072 151.108 214.916 161.314 214.909 171.717Z" fill="white"/>
<path d="M148.316 170.314C157.994 170.314 165.84 162.462 165.84 152.776C165.84 143.09 157.994 135.238 148.316 135.238C138.637 135.238 130.791 143.09 130.791 152.776C130.791 162.462 138.637 170.314 148.316 170.314Z" fill="#E4E4E4"/>
<path d="M212.694 155.954C208.896 157.783 204.566 158.18 200.499 157.074C196.432 155.968 192.899 153.431 190.549 149.93C188.198 146.429 187.187 142.198 187.701 138.011C188.215 133.825 190.219 129.964 193.347 127.136C202.64 134.488 209.405 144.564 212.694 155.954Z" fill="#F2F2F2"/>
<path d="M177.056 196.972C180.54 196.972 183.365 194.145 183.365 190.658C183.365 187.171 180.54 184.344 177.056 184.344C173.572 184.344 170.747 187.171 170.747 190.658C170.747 194.145 173.572 196.972 177.056 196.972Z" fill="#E4E4E4"/>
<path d="M151.119 226.435C151.119 226.989 151.046 227.541 150.902 228.077C146.716 227.553 142.603 226.555 138.642 225.102C138.971 223.579 139.851 222.231 141.113 221.318C142.375 220.405 143.93 219.992 145.479 220.157C147.027 220.323 148.46 221.055 149.501 222.214C150.543 223.373 151.119 224.877 151.119 226.435Z" fill="#F2F2F2"/>
<path d="M113.967 168.911C113.967 172.114 112.75 175.197 110.564 177.537C108.377 179.876 105.384 181.296 102.191 181.51C100.745 173.171 101.167 164.615 103.425 156.459C106.37 156.951 109.046 158.471 110.976 160.751C112.907 163.031 113.966 165.923 113.967 168.911Z" fill="#F2F2F2"/>
<path d="M425.117 148.851C426.55 148.851 427.712 147.688 427.712 146.254C427.712 144.819 426.55 143.656 425.117 143.656C423.683 143.656 422.521 144.819 422.521 146.254C422.521 147.688 423.683 148.851 425.117 148.851Z" fill="#6C63FF"/>
<path d="M401.175 85.663C402.012 85.663 402.691 84.9836 402.691 84.1455C402.691 83.3075 402.012 82.6281 401.175 82.6281C400.337 82.6281 399.658 83.3075 399.658 84.1455C399.658 84.9836 400.337 85.663 401.175 85.663Z" fill="#F0F0F0"/>
<path d="M157.933 383.105C158.771 383.105 159.45 382.425 159.45 381.587C159.45 380.749 158.771 380.07 157.933 380.07C157.096 380.07 156.417 380.749 156.417 381.587C156.417 382.425 157.096 383.105 157.933 383.105Z" fill="#F0F0F0"/>
<path d="M409.783 234.135C410.62 234.135 411.299 233.456 411.299 232.618C411.299 231.78 410.62 231.1 409.783 231.1C408.945 231.1 408.267 231.78 408.267 232.618C408.267 233.456 408.945 234.135 409.783 234.135Z" fill="#F0F0F0"/>
<path d="M214.121 248.466C215.554 248.466 216.716 247.303 216.716 245.869C216.716 244.434 215.554 243.271 214.121 243.271C212.687 243.271 211.525 244.434 211.525 245.869C211.525 247.303 212.687 248.466 214.121 248.466Z" fill="#6C63FF"/>
<path d="M120.188 304.433C126.956 304.433 132.443 298.942 132.443 292.169C132.443 285.395 126.956 279.904 120.188 279.904C113.42 279.904 107.933 285.395 107.933 292.169C107.933 298.942 113.42 304.433 120.188 304.433Z" fill="#6C63FF"/>
<path d="M187.375 307.341C188.212 307.341 188.891 306.662 188.891 305.824C188.891 304.986 188.212 304.306 187.375 304.306C186.537 304.306 185.858 304.986 185.858 305.824C185.858 306.662 186.537 307.341 187.375 307.341Z" fill="#F0F0F0"/>
<path d="M341.591 70.2296C342.429 70.2296 343.108 69.5503 343.108 68.7122C343.108 67.8742 342.429 67.1948 341.591 67.1948C340.754 67.1948 340.075 67.8742 340.075 68.7122C340.075 69.5503 340.754 70.2296 341.591 70.2296Z" fill="#F0F0F0"/>
<path d="M251.164 393.627C252.001 393.627 252.68 392.948 252.68 392.11C252.68 391.272 252.001 390.593 251.164 390.593C250.326 390.593 249.647 391.272 249.647 392.11C249.647 392.948 250.326 393.627 251.164 393.627Z" fill="#F0F0F0"/>
<path d="M228.732 84.2599C229.569 84.2599 230.248 83.5806 230.248 82.7425C230.248 81.9045 229.569 81.2251 228.732 81.2251C227.895 81.2251 227.216 81.9045 227.216 82.7425C227.216 83.5806 227.895 84.2599 228.732 84.2599Z" fill="#F0F0F0"/>
<path d="M267.988 157.919C268.825 157.919 269.504 157.239 269.504 156.401C269.504 155.563 268.825 154.884 267.988 154.884C267.151 154.884 266.472 155.563 266.472 156.401C266.472 157.239 267.151 157.919 267.988 157.919Z" fill="#F0F0F0"/>
<path d="M207.899 338.661C208.737 338.661 209.415 337.981 209.415 337.143C209.415 336.305 208.737 335.626 207.899 335.626C207.062 335.626 206.383 336.305 206.383 337.143C206.383 337.981 207.062 338.661 207.899 338.661Z" fill="#F0F0F0"/>
<path d="M385.248 348.482C386.085 348.482 386.764 347.803 386.764 346.964C386.764 346.126 386.085 345.447 385.248 345.447C384.41 345.447 383.731 346.126 383.731 346.964C383.731 347.803 384.41 348.482 385.248 348.482Z" fill="#F0F0F0"/>
<path d="M306.738 260.091C307.575 260.091 308.254 259.412 308.254 258.574C308.254 257.736 307.575 257.056 306.738 257.056C305.901 257.056 305.222 257.736 305.222 258.574C305.222 259.412 305.901 260.091 306.738 260.091Z" fill="#F0F0F0"/>
<path d="M346.694 157.67C347.531 157.67 348.21 156.991 348.21 156.153C348.21 155.315 347.531 154.635 346.694 154.635C345.857 154.635 345.178 155.315 345.178 156.153C345.178 156.991 345.857 157.67 346.694 157.67Z" fill="#F0F0F0"/>
<path d="M419.337 208.31C420.998 208.31 422.344 206.963 422.344 205.301C422.344 203.64 420.998 202.293 419.337 202.293C417.677 202.293 416.331 203.64 416.331 205.301C416.331 206.963 417.677 208.31 419.337 208.31Z" fill="#FF6584"/>
<path d="M297.366 108.695C299.026 108.695 300.372 107.348 300.372 105.686C300.372 104.025 299.026 102.678 297.366 102.678C295.705 102.678 294.359 104.025 294.359 105.686C294.359 107.348 295.705 108.695 297.366 108.695Z" fill="#FF6584"/>
<path d="M297.366 315.642C299.026 315.642 300.372 314.295 300.372 312.633C300.372 310.971 299.026 309.624 297.366 309.624C295.705 309.624 294.359 310.971 294.359 312.633C294.359 314.295 295.705 315.642 297.366 315.642Z" fill="#FF6584"/>
<path d="M484.676 329.971C483.505 329.973 482.366 330.355 481.431 331.061C480.497 331.768 479.817 332.759 479.496 333.886C479.354 334.369 479.283 334.87 479.285 335.373V343.819C481.381 341.834 483.433 339.802 485.44 337.723C487.9 335.198 490.295 332.614 492.625 329.971H484.676Z" fill="#6C63FF"/>
<path d="M503.763 373.858C494.712 373.858 484.791 373.516 474.002 372.832C418.194 369.285 345.905 356.954 270.453 338.112C195 319.27 125.398 296.166 74.4676 273.058C49.658 261.801 30.6168 251.145 17.8735 241.386C4.38156 231.055 -1.51998 222.05 0.332069 214.621C3.94073 200.15 35.8937 196.984 62.0635 196.876L62.0724 198.981C26.1343 199.128 4.93265 204.864 2.37276 215.131C-0.888122 228.207 25.7061 248.622 75.336 271.141C126.154 294.198 195.629 317.258 270.962 336.071C346.295 354.883 418.45 367.192 474.135 370.731C528.516 374.188 561.578 368.67 564.839 355.594C567.546 344.737 549.699 328.743 514.585 310.558L515.552 308.689C541.066 321.903 570.681 340.854 566.879 356.103C565.027 363.532 555.59 368.706 538.829 371.483C529.275 373.065 517.54 373.858 503.763 373.858Z" fill="#6C63FF"/>
<path d="M500.911 216.965C539.819 216.965 571.36 185.4 571.36 146.463C571.36 107.525 539.819 75.9604 500.911 75.9604C462.003 75.9604 430.462 107.525 430.462 146.463C430.462 185.4 462.003 216.965 500.911 216.965Z" fill="white"/>
<path d="M500.911 74.9081C486.769 74.9081 472.945 79.1047 461.187 86.9672C449.429 94.8297 440.265 106.005 434.853 119.08C429.441 132.155 428.025 146.542 430.784 160.422C433.543 174.302 440.353 187.052 450.352 197.059C460.352 207.066 473.092 213.881 486.962 216.642C500.831 219.403 515.208 217.986 528.273 212.57C541.338 207.154 552.504 197.983 560.361 186.216C568.218 174.449 572.411 160.615 572.411 146.463C572.445 137.056 570.618 127.737 567.037 119.04C563.456 110.343 558.191 102.442 551.544 95.7905C544.898 89.1393 537.003 83.8699 528.313 80.286C519.622 76.702 510.31 74.8743 500.911 74.9081ZM500.911 215.912C487.185 215.912 473.768 211.839 462.355 204.208C450.943 196.577 442.048 185.73 436.796 173.04C431.543 160.35 430.169 146.385 432.847 132.914C435.524 119.442 442.134 107.067 451.839 97.3541C461.545 87.6413 473.91 81.0269 487.372 78.3471C500.834 75.6674 514.787 77.0427 527.468 82.2992C540.149 87.5557 550.987 96.4573 558.612 107.878C566.238 119.299 570.308 132.727 570.308 146.463C570.343 155.593 568.573 164.64 565.098 173.082C561.623 181.524 556.512 189.194 550.061 195.65C543.61 202.106 535.945 207.22 527.51 210.698C519.074 214.176 510.034 215.948 500.911 215.912Z" fill="#2F2E41"/>
<path d="M439.087 163.349C438.764 163.348 438.452 163.236 438.202 163.032C437.952 162.828 437.78 162.544 437.715 162.228C435.7 151.955 436.064 141.357 438.778 131.248C441.493 121.138 446.487 111.785 453.375 103.907C453.623 103.631 453.97 103.464 454.341 103.443C454.711 103.422 455.075 103.55 455.352 103.797C455.629 104.044 455.797 104.39 455.819 104.761C455.841 105.132 455.715 105.496 455.469 105.774C448.867 113.323 444.082 122.286 441.48 131.974C438.879 141.663 438.53 151.819 440.461 161.663C440.503 161.867 440.499 162.077 440.449 162.28C440.399 162.482 440.305 162.671 440.174 162.832C440.042 162.993 439.876 163.123 439.688 163.213C439.5 163.302 439.295 163.348 439.087 163.349H439.087Z" fill="#2F2E41"/>
<path d="M168.281 399.411C143.327 399.412 120.128 398.555 99.3589 396.826C72.2122 394.565 50.7004 390.931 35.4218 386.025C19.2454 380.83 10.6635 374.333 9.91426 366.713C8.45411 351.87 37.4868 338.144 62.0992 329.243L62.8139 331.223C29.0147 343.446 10.9712 355.977 12.0069 366.508C13.3261 379.92 45.228 390.206 99.5331 394.728C155.139 399.358 228.316 397.718 305.585 390.105C382.855 382.495 454.948 369.827 508.584 354.436C560.966 339.406 590.252 323.093 588.933 309.68C587.838 298.544 565.659 289.482 526.481 284.16L526.764 282.075C555.231 285.941 589.488 293.833 591.026 309.474C591.776 317.093 584.624 325.14 569.77 333.391C555.74 341.185 535.349 348.946 509.164 356.459C455.409 371.884 383.183 384.576 305.791 392.2C257.242 396.982 210.286 399.411 168.281 399.411Z" fill="#6C63FF"/>
<path d="M587.745 317.06C594.513 317.06 600 311.569 600 304.796C600 298.022 594.513 292.531 587.745 292.531C580.976 292.531 575.489 298.022 575.489 304.796C575.489 311.569 580.976 317.06 587.745 317.06Z" fill="#6C63FF"/>
<path d="M232.346 24.5292C239.115 24.5292 244.601 19.0381 244.601 12.2646C244.601 5.49105 239.115 0 232.346 0C225.578 0 220.091 5.49105 220.091 12.2646C220.091 19.0381 225.578 24.5292 232.346 24.5292Z" fill="#E6E6E6"/>
<path d="M13.6391 316.359C20.4076 316.359 25.8945 310.868 25.8945 304.094C25.8945 297.321 20.4076 291.83 13.6391 291.83C6.87069 291.83 1.38379 297.321 1.38379 304.094C1.38379 310.868 6.87069 316.359 13.6391 316.359Z" fill="#E6E6E6"/>
<path d="M89.3449 83.6102C93.4883 83.6102 96.8471 80.2488 96.8471 76.1023C96.8471 71.9559 93.4883 68.5945 89.3449 68.5945C85.2016 68.5945 81.8428 71.9559 81.8428 76.1023C81.8428 80.2488 85.2016 83.6102 89.3449 83.6102Z" fill="#FF6584"/>
<path d="M54.2961 368.425C58.4394 368.425 61.7983 365.063 61.7983 360.917C61.7983 356.77 58.4394 353.409 54.2961 353.409C50.1528 353.409 46.7939 356.77 46.7939 360.917C46.7939 365.063 50.1528 368.425 54.2961 368.425Z" fill="#FF6584"/>
<path d="M566.014 245.66C570.157 245.66 573.516 242.298 573.516 238.152C573.516 234.006 570.157 230.644 566.014 230.644C561.871 230.644 558.512 234.006 558.512 238.152C558.512 242.298 561.871 245.66 566.014 245.66Z" fill="#FF6584"/>
<path d="M452.455 432.109C459.223 432.109 464.71 426.618 464.71 419.844C464.71 413.071 459.223 407.579 452.455 407.579C445.686 407.579 440.199 413.071 440.199 419.844C440.199 426.618 445.686 432.109 452.455 432.109Z" fill="#E6E6E6"/>
<path d="M499.067 206.021C522.853 206.021 542.135 186.739 542.135 162.954C542.135 139.168 522.853 119.887 499.067 119.887C475.282 119.887 456 139.168 456 162.954C456 186.739 475.282 206.021 499.067 206.021Z" fill="#2F2E41"/>
<path d="M556.26 165.722L523.223 185.652L529.981 196.855L563.019 176.925L556.26 165.722Z" fill="#2F2E41"/>
<path d="M563.252 176.784C565.186 175.617 564.232 170.492 561.121 165.336C558.011 160.18 553.922 156.946 551.988 158.112C550.055 159.278 551.009 164.404 554.119 169.56C557.23 174.716 561.319 177.95 563.252 176.784Z" fill="#2F2E41"/>
<path d="M548.038 169.514L515 189.444L521.758 200.647L554.796 180.717L548.038 169.514Z" fill="#2F2E41"/>
<path d="M555.029 180.576C556.963 179.41 556.009 174.285 552.899 169.129C549.788 163.972 545.699 160.738 543.766 161.905C541.832 163.071 542.786 168.196 545.897 173.353C549.007 178.509 553.096 181.743 555.029 180.576Z" fill="#2F2E41"/>
<path d="M457.29 122.903C453.813 107.329 464.929 91.5922 482.119 87.7538C499.309 83.9154 516.063 93.4289 519.54 109.003C523.018 124.577 511.625 130.32 494.435 134.159C477.246 137.997 460.768 138.476 457.29 122.903Z" fill="#6C63FF"/>
<path d="M515.619 160.502C513.367 160.547 511.157 159.884 509.302 158.606C507.446 157.328 506.039 155.499 505.28 153.378C505.238 153.254 505.221 153.122 505.23 152.991C505.239 152.86 505.274 152.732 505.332 152.615C505.391 152.497 505.472 152.392 505.571 152.306C505.67 152.22 505.785 152.154 505.909 152.112C506.034 152.07 506.165 152.053 506.296 152.062C506.427 152.071 506.555 152.106 506.673 152.165C506.79 152.223 506.895 152.304 506.982 152.403C507.068 152.502 507.134 152.617 507.176 152.742C508.69 157.25 513.874 159.607 518.73 157.995C521.141 157.21 523.144 155.503 524.303 153.248C524.8 152.276 525.098 151.215 525.182 150.127C525.265 149.039 525.131 147.946 524.788 146.91C524.746 146.785 524.729 146.654 524.738 146.523C524.747 146.392 524.782 146.264 524.841 146.146C524.899 146.029 524.98 145.924 525.079 145.837C525.178 145.751 525.293 145.685 525.418 145.643C525.542 145.601 525.674 145.585 525.805 145.594C525.936 145.603 526.064 145.637 526.181 145.696C526.299 145.754 526.404 145.835 526.49 145.934C526.576 146.033 526.642 146.148 526.684 146.273C527.112 147.558 527.28 148.916 527.178 150.267C527.076 151.617 526.707 152.934 526.092 154.141C524.695 156.872 522.275 158.939 519.36 159.894C518.153 160.295 516.891 160.5 515.619 160.502Z" fill="white"/>
<path d="M534.804 166.355C535.96 168.615 536.171 171.242 535.39 173.658C534.609 176.074 532.901 178.08 530.64 179.236C528.38 180.392 525.753 180.603 523.337 179.822C520.922 179.041 518.915 177.333 517.759 175.072L517.751 175.056C515.348 170.346 518.668 167.423 523.377 165.021C528.086 162.618 532.402 161.646 534.804 166.355Z" fill="white"/>
<path d="M487.196 213.144C491.207 212.109 491.788 200.913 488.492 188.135C485.197 175.358 479.274 165.839 475.263 166.873C471.252 167.908 470.671 179.104 473.967 191.882C477.262 204.659 483.185 214.178 487.196 213.144Z" fill="#2F2E41"/>
<path d="M558.971 137.5H542.585C542.429 137.5 542.277 137.453 542.148 137.365C542.019 137.276 541.92 137.151 541.864 137.005C541.808 136.86 541.797 136.7 541.833 136.549C541.87 136.397 541.951 136.259 542.067 136.155L556.967 122.66H543.2C542.995 122.66 542.798 122.578 542.653 122.434C542.508 122.289 542.427 122.092 542.427 121.887C542.427 121.682 542.508 121.486 542.653 121.341C542.798 121.196 542.995 121.114 543.2 121.114H558.971C559.127 121.114 559.279 121.162 559.408 121.25C559.537 121.338 559.636 121.463 559.692 121.609C559.748 121.755 559.759 121.914 559.723 122.066C559.687 122.218 559.606 122.355 559.49 122.46L544.59 135.955H558.971C559.176 135.955 559.372 136.036 559.517 136.181C559.662 136.326 559.744 136.522 559.744 136.727C559.744 136.932 559.662 137.129 559.517 137.274C559.372 137.419 559.176 137.5 558.971 137.5Z" fill="#CBCBCB"/>
<path d="M544.158 114.386H527.773C527.617 114.386 527.464 114.338 527.336 114.25C527.207 114.162 527.108 114.037 527.052 113.891C526.996 113.745 526.985 113.586 527.021 113.434C527.057 113.282 527.138 113.145 527.254 113.04L542.154 99.5455H528.387C528.182 99.5455 527.986 99.4641 527.841 99.3192C527.696 99.1742 527.615 98.9776 527.615 98.7727C527.615 98.5678 527.696 98.3712 527.841 98.2263C527.986 98.0814 528.182 98 528.387 98H544.158C544.315 98 544.467 98.0472 544.596 98.1356C544.724 98.2239 544.823 98.3491 544.88 98.4948C544.936 98.6404 544.946 98.7996 544.91 98.9515C544.874 99.1033 544.793 99.2407 544.677 99.3455L529.777 112.84H544.158C544.363 112.84 544.56 112.922 544.705 113.066C544.85 113.211 544.931 113.408 544.931 113.613C544.931 113.818 544.85 114.014 544.705 114.159C544.56 114.304 544.363 114.386 544.158 114.386Z" fill="#CBCBCB"/>
</g>
<defs>
<clipPath id="clip0_32_441">
<rect width="600" height="442" fill="white"/>
</clipPath>
</defs>
</svg>
