<svg width="35" height="36" viewBox="0 0 35 36" fill="none" xmlns="http://www.w3.org/2000/svg">
<g clip-path="url(#clip0_33_323)">
<path d="M17.4375 0.5625C7.80469 0.5625 0 8.36719 0 18C0 27.6328 7.80469 35.4375 17.4375 35.4375C27.0703 35.4375 34.875 27.6328 34.875 18C34.875 8.36719 27.0703 0.5625 17.4375 0.5625ZM17.4375 7.3125C20.8547 7.3125 23.625 10.0828 23.625 13.5C23.625 16.9172 20.8547 19.6875 17.4375 19.6875C14.0203 19.6875 11.25 16.9172 11.25 13.5C11.25 10.0828 14.0203 7.3125 17.4375 7.3125ZM17.4375 31.5C13.3102 31.5 9.61172 29.6297 7.13672 26.7047C8.45859 24.2156 11.0461 22.5 14.0625 22.5C14.2312 22.5 14.4 22.5281 14.5617 22.5773C15.4758 22.8727 16.432 23.0625 17.4375 23.0625C18.443 23.0625 19.4062 22.8727 20.3133 22.5773C20.475 22.5281 20.6437 22.5 20.8125 22.5C23.8289 22.5 26.4164 24.2156 27.7383 26.7047C25.2633 29.6297 21.5648 31.5 17.4375 31.5Z" fill="#4A7BFF"/>
</g>
<defs>
<clipPath id="clip0_33_323">
<rect width="34.875" height="36" fill="white"/>
</clipPath>
</defs>
</svg>
