<svg width="27" height="24" viewBox="0 0 27 24" fill="none" xmlns="http://www.w3.org/2000/svg">
<g clip-path="url(#clip0_22_461)">
<path d="M26.6958 20.6256C27.561 22.1253 26.475 24 24.7469 24H2.25224C0.520818 24 -0.560214 22.1224 0.303318 20.6256L11.5508 1.1243C12.4164 -0.376125 14.5845 -0.373406 15.4486 1.1243L26.6958 20.6256ZM13.4997 16.5938C12.3088 16.5938 11.3435 17.5591 11.3435 18.75C11.3435 19.9409 12.3088 20.9062 13.4997 20.9062C14.6906 20.9062 15.656 19.9409 15.656 18.75C15.656 17.5591 14.6906 16.5938 13.4997 16.5938ZM11.4525 8.84316L11.8003 15.2182C11.8165 15.5165 12.0632 15.75 12.3619 15.75H14.6375C14.9362 15.75 15.1829 15.5165 15.1992 15.2182L15.5469 8.84316C15.5645 8.52094 15.3079 8.25 14.9852 8.25H12.0141C11.6915 8.25 11.435 8.52094 11.4525 8.84316Z" fill="#050505"/>
</g>
<defs>
<clipPath id="clip0_22_461">
<rect width="27" height="24" fill="white"/>
</clipPath>
</defs>
</svg>
